<svg xmlns="http://www.w3.org/2000/svg" viewBox="0 0 620 506.37"><defs><style>.a{fill:#231f20;}.b{fill:#ffb88c;}.c{fill:#969eb2;}.d{fill:#de6262;}</style></defs><title>layer</title><path class="a" d="M566.26,183.18c15.2,8.83,16.32,20.66.09,30L240.1,401.58c-14.8,8.55-33.05,8.71-47.68,2L53.67,323.21c-15.12-8.87-16.25-20.7,0-30.08L379.73,104.81a52.63,52.63,0,0,1,51.85.14Z"/><path class="b" d="M392.93,217.61l-90.72-51.68c-1-.59-.87-1.61.38-2.27l4.36-2.31a4.83,4.83,0,0,1,4.15-.12l90.72,51.68c1,.59.87,1.61-.38,2.27l-4.36,2.31A4.83,4.83,0,0,1,392.93,217.61Z"/><path class="c" d="M463.8,258l-61.19-34.86c-1-.59-.87-1.61.38-2.27l4.36-2.31a4.83,4.83,0,0,1,4.15-.12l61.19,34.86c1,.59.87,1.61-.38,2.27L468,257.86A4.83,4.83,0,0,1,463.8,258Z"/><path class="b" d="M333.81,203.46l-37.57-21.4c-1-.59-.87-1.61.38-2.27l4.36-2.31a4.83,4.83,0,0,1,4.15-.12l37.57,21.4c1,.59.87,1.61-.38,2.27L338,203.34A4.83,4.83,0,0,1,333.81,203.46Z"/><path class="c" d="M387,233.74,343.49,209c-1-.59-.87-1.61.38-2.27l4.36-2.31a4.83,4.83,0,0,1,4.15-.12L395.85,229c1,.59.87,1.61-.38,2.27l-4.36,2.31A4.83,4.83,0,0,1,387,233.74Z"/><path class="d" d="M440.12,264l-44.65-25.44c-1-.59-.87-1.61.38-2.27L400.2,234a4.83,4.83,0,0,1,4.15-.12L449,259.32c1,.59.87,1.61-.38,2.27l-4.36,2.31A4.83,4.83,0,0,1,440.12,264Z"/><path class="d" d="M327.84,219.6l-37.57-21.4c-1-.59-.87-1.61.38-2.27l4.36-2.31a4.83,4.83,0,0,1,4.15-.12l37.57,21.4c1,.59.87,1.61-.38,2.27L332,219.47A4.83,4.83,0,0,1,327.84,219.6Z"/><path class="c" d="M392.8,256.6l-55.28-31.49c-1-.59-.87-1.61.38-2.27l4.36-2.31a4.83,4.83,0,0,1,4.15-.12l55.28,31.49c1,.59.87,1.61-.38,2.27L397,256.48A4.83,4.83,0,0,1,392.8,256.6Z"/><path class="c" d="M321.87,235.73,272.49,207.6c-1-.59-.87-1.61.38-2.27l4.36-2.31a4.83,4.83,0,0,1,4.15-.12L330.76,231c1,.59.87,1.61-.38,2.27L326,235.61A4.83,4.83,0,0,1,321.87,235.73Z"/><path class="b" d="M428.75,120.81,408.91,109.5c-1-.59-.87-1.61.38-2.27l4.36-2.31a4.83,4.83,0,0,1,4.15-.12l19.85,11.31c1,.59.87,1.61-.38,2.27l-4.36,2.31A4.83,4.83,0,0,1,428.75,120.81Z"/><path class="d" d="M481.84,170.58,391.12,118.9c-1-.59-.87-1.61.38-2.27l4.36-2.31a4.83,4.83,0,0,1,4.15-.12l90.72,51.68c1,.59.87,1.61-.38,2.27L486,170.46A4.83,4.83,0,0,1,481.84,170.58Z"/><path class="b" d="M552.72,211,491.53,176.1c-1-.59-.87-1.61.38-2.27l4.36-2.31a4.83,4.83,0,0,1,4.15-.12l61.19,34.86c1,.59.87,1.61-.38,2.27l-4.36,2.31A4.83,4.83,0,0,1,552.72,211Z"/><path class="b" d="M422.72,156.44,385.15,135c-1-.59-.87-1.61.38-2.27l4.36-2.31a4.83,4.83,0,0,1,4.15-.12l37.57,21.4c1,.59.87,1.61-.38,2.27l-4.36,2.31A4.83,4.83,0,0,1,422.72,156.44Z"/><path class="d" d="M475.87,186.72,432.4,162c-1-.59-.87-1.61.38-2.27l4.36-2.31a4.83,4.83,0,0,1,4.15-.12L484.76,182c1,.59.87,1.61-.38,2.27L480,186.6A4.83,4.83,0,0,1,475.87,186.72Z"/><path class="d" d="M529,217l-44.65-25.44c-1-.59-.87-1.61.38-2.27l4.36-2.31a4.83,4.83,0,0,1,4.15-.12l44.65,25.44c1,.59.87,1.61-.38,2.27l-4.36,2.31A4.83,4.83,0,0,1,529,217Z"/><path class="c" d="M416.75,172.57l-37.57-21.4c-1-.59-.87-1.61.38-2.27l4.36-2.31a4.83,4.83,0,0,1,4.15-.12l37.57,21.4c1,.59.87,1.61-.38,2.27l-4.36,2.31A4.83,4.83,0,0,1,416.75,172.57Z"/><path class="d" d="M422.59,195.43,373.21,167.3c-1-.59-.87-1.61.38-2.27l4.36-2.31a4.83,4.83,0,0,1,4.15-.12l49.38,28.13c1,.59.87,1.61-.38,2.27l-4.36,2.31A4.83,4.83,0,0,1,422.59,195.43Z"/><path class="b" d="M363.47,181.29,343.62,170c-1-.59-.87-1.61.38-2.27l4.36-2.31a4.83,4.83,0,0,1,4.15-.12l19.85,11.31c1,.59.87,1.61-.38,2.27l-4.36,2.31A4.83,4.83,0,0,1,363.47,181.29Z"/><path class="b" d="M269.93,283.31l-90.72-51.68c-1-.59-.87-1.61.38-2.27L184,227a4.83,4.83,0,0,1,4.15-.12l90.72,51.68c1,.59.87,1.61-.38,2.27l-4.36,2.31A4.83,4.83,0,0,1,269.93,283.31Z"/><path class="c" d="M340.81,323.68l-61.19-34.86c-1-.59-.87-1.61.38-2.27l4.36-2.31a4.83,4.83,0,0,1,4.15-.12L349.7,319c1,.59.87,1.61-.38,2.27L345,323.56A4.83,4.83,0,0,1,340.81,323.68Z"/><path class="b" d="M281,232l-49.38-28.13c-1-.59-.87-1.61.38-2.27l4.36-2.31a4.83,4.83,0,0,1,4.15-.12l49.38,28.13c1,.59.87,1.61-.38,2.27l-4.36,2.31A4.83,4.83,0,0,1,281,232Z"/><path class="d" d="M334.2,262.29l-43.47-24.76c-1-.59-.87-1.61.38-2.27l4.36-2.31a4.83,4.83,0,0,1,4.15-.12l43.47,24.76c1,.59.87,1.61-.38,2.27l-4.36,2.31A4.83,4.83,0,0,1,334.2,262.29Z"/><path class="d" d="M387.36,292.57l-44.65-25.44c-1-.59-.87-1.61.38-2.27l4.36-2.31a4.83,4.83,0,0,1,4.15-.12l44.65,25.44c1,.59.87,1.61-.38,2.27l-4.36,2.31A4.83,4.83,0,0,1,387.36,292.57Z"/><path class="c" d="M304.61,265,225.7,220c-1-.59-.87-1.61.38-2.27l4.36-2.31a4.83,4.83,0,0,1,4.15-.12l78.91,45c1,.59.87,1.61-.38,2.27l-4.36,2.31A4.83,4.83,0,0,1,304.61,265Z"/><path class="d" d="M268.52,263.94l-49.38-28.13c-1-.59-.87-1.61.38-2.27l4.36-2.31a4.83,4.83,0,0,1,4.15-.12l49.38,28.13c1,.59.87,1.61-.38,2.27l-4.36,2.31A4.83,4.83,0,0,1,268.52,263.94Z"/><path class="c" d="M505.34,223l-78.91-45c-1-.59-.87-1.61.38-2.27l4.36-2.31a4.83,4.83,0,0,1,4.15-.12l78.91,45c1,.59.87,1.61-.38,2.27l-4.36,2.31A4.83,4.83,0,0,1,505.34,223Z"/><path class="d" d="M251.26,293.18,160.54,241.5c-1-.59-.87-1.61.38-2.27l4.36-2.31a4.83,4.83,0,0,1,4.15-.12l90.72,51.68c1,.59.87,1.61-.38,2.27l-4.36,2.31A4.83,4.83,0,0,1,251.26,293.18Z"/><path class="b" d="M322.13,333.56,260.94,298.7c-1-.59-.87-1.61.38-2.27l4.36-2.31a4.83,4.83,0,0,1,4.15-.12L331,328.85c1,.59.87,1.61-.38,2.27l-4.36,2.31A4.83,4.83,0,0,1,322.13,333.56Z"/><path class="b" d="M192.14,279l-37.57-21.4c-1-.59-.87-1.61.38-2.27l4.36-2.31a4.83,4.83,0,0,1,4.15-.12L201,274.33c1,.59.87,1.61-.38,2.27l-4.36,2.31A4.83,4.83,0,0,1,192.14,279Z"/><path class="d" d="M245.29,309.32l-43.47-24.76c-1-.59-.87-1.61.38-2.27l4.36-2.31a4.83,4.83,0,0,1,4.15-.12l43.47,24.76c1,.59.87,1.61-.38,2.27l-4.36,2.31A4.83,4.83,0,0,1,245.29,309.32Z"/><path class="d" d="M298.45,339.6l-44.65-25.44c-1-.59-.87-1.61.38-2.27l4.36-2.31a4.83,4.83,0,0,1,4.15-.12l44.65,25.44c1,.59.87,1.61-.38,2.27l-4.36,2.31A4.83,4.83,0,0,1,298.45,339.6Z"/><path class="c" d="M186.17,295.17l-37.57-21.4c-1-.59-.87-1.61.38-2.27l4.36-2.31a4.83,4.83,0,0,1,4.15-.12l37.57,21.4c1,.59.87,1.61-.38,2.27L190.32,295A4.83,4.83,0,0,1,186.17,295.17Z"/><path class="d" d="M192,318,142.63,289.9c-1-.59-.87-1.61.38-2.27l4.36-2.31a4.83,4.83,0,0,1,4.15-.12l49.38,28.13c1,.59.87,1.61-.38,2.27l-4.36,2.31A4.83,4.83,0,0,1,192,318Z"/><path class="c" d="M274.76,345.64l-78.91-45c-1-.59-.87-1.61.38-2.27l4.36-2.31a4.83,4.83,0,0,1,4.15-.12l78.91,45c1,.59.87,1.61-.38,2.27l-4.36,2.31A4.83,4.83,0,0,1,274.76,345.64Z"/><path class="b" d="M180.13,330.8,89.41,279.12c-1-.59-.87-1.61.38-2.27l4.36-2.31a4.83,4.83,0,0,1,4.15-.12L189,326.1c1,.59.87,1.61-.38,2.27l-4.36,2.31A4.83,4.83,0,0,1,180.13,330.8Z"/><path class="c" d="M251,371.18l-61.19-34.86c-1-.59-.87-1.61.38-2.27l4.36-2.31a4.83,4.83,0,0,1,4.15-.12l61.19,34.86c1,.59.87,1.61-.38,2.27l-4.36,2.31A4.83,4.83,0,0,1,251,371.18Z"/><path class="b" d="M121,316.65l-37.57-21.4c-1-.59-.87-1.61.38-2.27l4.36-2.31a4.83,4.83,0,0,1,4.15-.12L129.9,312c1,.59.87,1.61-.38,2.27l-4.36,2.31A4.83,4.83,0,0,1,121,316.65Z"/><path class="c" d="M174.16,346.94l-43.47-24.76c-1-.59-.87-1.61.38-2.27l4.36-2.31a4.83,4.83,0,0,1,4.15-.12l43.47,24.76c1,.59.87,1.61-.38,2.27l-4.36,2.31A4.83,4.83,0,0,1,174.16,346.94Z"/><path class="d" d="M227.32,377.22l-44.65-25.44c-1-.59-.87-1.61.38-2.27l4.36-2.31a4.83,4.83,0,0,1,4.15-.12l44.65,25.44c1,.59.87,1.61-.38,2.27l-4.36,2.31A4.83,4.83,0,0,1,227.32,377.22Z"/><path class="d" d="M115,332.79l-37.57-21.4c-1-.59-.87-1.61.38-2.27l4.36-2.31a4.83,4.83,0,0,1,4.15-.12l37.57,21.4c1,.59.87,1.61-.38,2.27l-4.36,2.31A4.83,4.83,0,0,1,115,332.79Z"/><path class="c" d="M180,369.8,124.72,338.3c-1-.59-.87-1.61.38-2.27l4.36-2.31a4.83,4.83,0,0,1,4.15-.12l55.28,31.49c1,.59.87,1.61-.38,2.27l-4.36,2.31A4.83,4.83,0,0,1,180,369.8Z"/></svg>