<svg xmlns="http://www.w3.org/2000/svg" viewBox="0 0 1280 800"><defs><style>.cls-1{fill:#ffb88c;}.cls-2{fill:#231f20;}.cls-3{fill:#414042;}.cls-4{fill:#58595b;}.cls-5{fill:#fff;}.cls-6{fill:none;}.cls-7{fill:#de6262;}.cls-8{fill:#5e5353;}</style></defs><title>full-stack-illustration</title><g id="Layer_7" data-name="Layer 7"><g id="Space_Gray_Black" data-name="Space Gray/Black"><polygon class="cls-1" points="401.88 421.54 695.26 252.09 860.86 348.29 567.48 517.74 401.88 421.54"/><path class="cls-2" d="M890.13,314.22c15.34,8.91,16.48,20.86.09,30.33L560.83,534.72c-14.94,8.63-33.37,8.79-48.14,2L372.61,455.6c-15.27-9-16.41-20.9,0-30.37L701.8,235.09a53.14,53.14,0,0,1,52.35.14ZM567.48,517.74,860.86,348.29l-165.6-96.2L401.88,421.54l165.6,96.2"/><path class="cls-3" d="M360.73,440.26c0,5.41,4.08,10.76,11.88,15.34l140.08,81.13c.87.4,1.76.77,2.66,1.13l.76.28c.63.24,1.27.47,1.92.68l1,.31c.66.2,1.33.4,2,.58l.53.14q1.31.33,2.64.6l.43.08c.89.17,1.78.33,2.67.45.62.09,1.24.15,1.86.21.42,0,.84.1,1.26.14s1.06.06,1.59.09,1,.07,1.52.08c.7,0,1.4,0,2.1,0h1.17c.94,0,1.87-.09,2.81-.17l.34,0c.92-.09,1.83-.2,2.74-.33l.65-.1c.9-.14,1.8-.3,2.69-.49h0c.95-.2,1.89-.44,2.83-.69l.3-.08c.83-.23,1.65-.49,2.47-.76l1-.36q.89-.32,1.77-.67l1-.42c.62-.26,1.24-.55,1.85-.84l.86-.41c.89-.44,1.77-.91,2.64-1.41l6.61-3.82,0,17.84-6.71,3.88c-.87.5-1.75,1-2.64,1.41l-.86.41c-.61.29-1.23.57-1.85.84l-1,.42q-.88.35-1.77.67l-1,.36-.61.21c-.62.2-1.24.38-1.86.55l-.3.08c-.94.26-1.88.49-2.83.69h0q-.86.18-1.72.34l-1,.15-.65.1c-.84.12-1.68.23-2.53.31l-.21,0-.34,0c-.94.08-1.87.14-2.81.17h-1.17c-.7,0-1.4,0-2.1,0h-.07c-.48,0-1-.05-1.43-.08s-1.07,0-1.6-.09h-.08c-.39,0-.78-.09-1.17-.13-.63-.07-1.25-.13-1.87-.21H527c-.86-.12-1.71-.27-2.56-.44l-.43-.08-.39-.07c-.76-.16-1.51-.34-2.25-.53l-.53-.14-1-.28-1-.3-1-.31c-.65-.21-1.28-.44-1.92-.68l-.76-.28-.19-.07q-1.25-.5-2.46-1.05L372.46,473.5c-7.8-4.58-11.91-9.93-11.88-15.34Z"/><path class="cls-3" d="M880.43,368l0-17.84,9.74-5.63,1-.58,1-.61.57-.37.93-.64.48-.34c.36-.27.7-.53,1-.8l.25-.19q.61-.5,1.16-1l.22-.21q.5-.47,1-.94l.32-.34q.42-.46.8-.92l.21-.25c.19-.25.37-.5.55-.75l.18-.26q.34-.5.63-1c.12-.21.22-.42.33-.63l.17-.32a12.38,12.38,0,0,0,.72-1.89c0-.1.05-.21.08-.31s.11-.42.15-.62,0-.25.06-.37.06-.38.08-.57,0-.26,0-.4,0-.45,0-.67l-.15,17.9q0,.14,0,.27c0,.13,0,.27,0,.4s0,.26,0,.39-.05.38-.08.57,0,.24-.06.37v.07c0,.19-.09.37-.14.56s0,.2-.08.31c-.09.31-.19.62-.31.94s-.26.64-.41,1l-.16.31c-.1.21-.21.41-.32.62v0q-.29.5-.63,1l-.19.26c-.17.25-.35.5-.55.74l-.05.07-.16.18q-.38.46-.8.92l-.32.34q-.45.47-1,.94l-.16.16-.06,0q-.55.51-1.16,1l-.24.19c-.34.27-.68.54-1,.8l-.48.34-.93.64-.57.37-1,.61-.33.21-.63.37Z"/><polygon class="cls-3" points="574.04 544.9 574.09 527.06 873.83 354.01 873.78 371.85 574.04 544.9"/><polygon class="cls-4" points="880.48 350.17 873.83 354.01 873.83 354.01 880.48 350.17 880.48 350.17"/><polygon class="cls-4" points="880.43 368.01 880.48 350.17 873.83 354.01 873.78 371.85 880.43 368.01"/><polygon class="cls-4" points="574.09 527.06 574.04 544.9 567.4 548.74 567.44 530.9 574.09 527.06"/><path class="cls-2" d="M810.25,395.87l-.11.07L810,396l-.12.08-.12.09,0,0h0l-.06,0-.12.1-.12.11-.11.11-.08.08h0l0,0-.1.11-.1.12-.1.13-.12.15-.17.24-.2.31,0,0,0,0-.1.17-.08.16-.07.14-.06.13v0h0l0,.1-.05.13,0,.13,0,.14,0,.14v0h0l0,.11,0,.14,0,.14,0,.14,0,.13h0l0,.13v.26s0,.09,0,.13,0,.08,0,.12h0s0,.09,0,.13,0,.08,0,.13v.13l0,.13v.13l0,.14v.07l0,.07.05.12v0h0l.1.18h0a1.44,1.44,0,0,0,.18.23l0,0a1.28,1.28,0,0,0,.22.17l1.84,1.08A1.29,1.29,0,0,1,810,403l0,0a1.43,1.43,0,0,1-.18-.23,1.67,1.67,0,0,1-.11-.19v0a2,2,0,0,1-.07-.19v0q0-.11-.06-.22v0q0-.12,0-.25v0c0-.09,0-.19,0-.29a4.06,4.06,0,0,1,.05-.65h0a5.06,5.06,0,0,1,.15-.66h0a5.91,5.91,0,0,1,.24-.65h0a6.41,6.41,0,0,1,.31-.62l0,0a6.21,6.21,0,0,1,.84-1.12h0a5.1,5.1,0,0,1,.49-.45h0a4.11,4.11,0,0,1,.53-.37l18.23-10.46a3,3,0,0,1,.54-.25h0a2.15,2.15,0,0,1,.49-.11h0a1.57,1.57,0,0,1,.45,0h0a1.3,1.3,0,0,1,.39.15l-1.84-1.08-.21-.1-.18,0h0l-.15,0h-.38l-.12,0-.11,0-.11,0-.08,0h0l-.11,0-.11,0-.11.05-.11.06-.08,0-18.23,10.46Z"/><path class="cls-3" d="M812.12,396.93a5.84,5.84,0,0,0-2.66,4.58c0,1.69,1.19,2.37,2.66,1.53l18.23-10.46A5.84,5.84,0,0,0,833,388c0-1.69-1.19-2.37-2.66-1.53Z"/><polyline class="cls-3" points="788.22 280.26 787.56 280.5 787.15 280.89 787.09 281.33 787.37 281.74 787.88 282.08 810.2 294.97 810.8 295.27 811.51 295.43 812.27 295.39 812.93 295.15 813.34 294.77 813.41 294.32 813.12 293.92 812.61 293.57 790.28 280.69 789.69 280.39 788.99 280.23 788.22 280.26"/></g><path class="cls-5" d="M739.1,383.59C705.55,402,655.37,403.07,627,385.91s-24.14-46,9.4-64.44S720.15,302,748.5,319.16,772.64,365.16,739.1,383.59Z"/><polygon class="cls-6" points="680.36 353.58 685.59 356.75 691.78 353.35 686.55 350.18 680.36 353.58"/><path class="cls-6" d="M657.53,354.06l26.14,15.82,30.93-17-26.14-15.82Zm30-10.43,15.68,9.49-18.56,10.2-15.68-9.49Z"/><path class="cls-7" d="M712.69,366l6.19-3.4-5.23-3.16,6.19-3.4c3.4-1.87,3.83-4.82,1-6.56l-5.23-3.16,6.19-3.4-5.23-3.16-6.19,3.4L705.11,340l6.19-3.4-5.23-3.16-6.19,3.4-5.23-3.16c-2.88-1.74-8-1.63-11.41.24l-6.19,3.4-5.23-3.16-6.19,3.4,5.23,3.16-6.19,3.4-5.23-3.16-6.19,3.4,5.23,3.16-6.19,3.4c-3.4,1.87-3.83,4.82-1,6.56l5.23,3.16-6.19,3.4,5.23,3.16,6.19-3.4,5.23,3.16-6.19,3.4,5.23,3.16,6.19-3.4,5.23,3.16c2.88,1.74,8,1.63,11.41-.24l6.19-3.4,5.23,3.16,6.19-3.4-5.23-3.16,6.19-3.4Zm-29,3.87-26.14-15.82,30.93-17,26.14,15.82Z"/><path class="cls-8" d="M703.19,353.11l-15.68-9.49-18.56,10.2,15.68,9.49Zm-17.6,3.64-5.23-3.16,6.19-3.4,5.23,3.16Z"/><polygon class="cls-5" points="638.88 438.67 536.2 376.55 552.14 367.79 654.82 429.91 638.88 438.67"/><polygon class="cls-5" points="610.43 453.89 507.76 391.78 523.7 383.02 626.37 445.13 610.43 453.89"/><path class="cls-7" d="M566.75,462.52l-75.34-45.58c-3.3-2-2.81-5.35,1.09-7.49l1.82-1c3.9-2.14,9.73-2.26,13-.27l75.34,45.58c3.3,2,2.81,5.35-1.09,7.49l-1.82,1C575.88,464.4,570,464.52,566.75,462.52Z"/><path class="cls-5" d="M517.43,425.43a1.51,1.51,0,0,0-.61.66q-.16.53.78,1.09a4.14,4.14,0,0,0,1,.47,2.19,2.19,0,0,0,1.67-.16q.43-.24.35-.56a2.31,2.31,0,0,0-.62-.85l-.59-.6a3.21,3.21,0,0,1-1-1.35q-.14-.78,1.15-1.49a5.36,5.36,0,0,1,2.68-.63,5.69,5.69,0,0,1,2.92.87,2.31,2.31,0,0,1,1.28,1.62q.1.91-1.25,1.7l-1.48-.9q.75-.46.52-1a1.66,1.66,0,0,0-.7-.68,3,3,0,0,0-1.26-.43,2,2,0,0,0-1.16.22q-.47.26-.34.6a3,3,0,0,0,.62.79l.93,1a2,2,0,0,1,.64,1.12q0,.74-1.12,1.38a5.38,5.38,0,0,1-2.77.62,6,6,0,0,1-3-.9q-1.46-.88-1.52-1.82t1.31-1.68Z"/><path class="cls-5" d="M529.21,425.58l1.57.95-5.37,3a3.59,3.59,0,0,0-1.14.83q-.45.57.48,1.14a2.54,2.54,0,0,0,1.95.33,5.6,5.6,0,0,0,1.5-.61l5.37-3,1.57.95-5.37,3a8.53,8.53,0,0,1-2.54,1,5.65,5.65,0,0,1-4-.79q-1.92-1.16-1.18-2.36a5,5,0,0,1,1.81-1.41Z"/><path class="cls-5" d="M541.21,433.91a2.12,2.12,0,0,1-1,.94,4,4,0,0,1-1.63.5,4.44,4.44,0,0,1-1.06-.07.86.86,0,0,1,.08.94,2.33,2.33,0,0,1-1,.88,5.09,5.09,0,0,1-1.72.57,5.54,5.54,0,0,1-1.21.06,4.28,4.28,0,0,1-1.27-.26,7,7,0,0,1-1.16-.57l-3.33-2,8.74-4.8,3.57,2.16Q541.55,433.07,541.21,433.91Zm-4.6-2.1-1.93,1.06,1.8,1.09a2.49,2.49,0,0,0,1,.35,1.76,1.76,0,0,0,1.07-.24q.61-.34.41-.68a2.55,2.55,0,0,0-.74-.6Zm-3.38,1.85-2.33,1.28L532.7,436a2.72,2.72,0,0,0,.9.37,2.36,2.36,0,0,0,1.58-.31q.68-.37.47-.8a1.6,1.6,0,0,0-.59-.53Z"/><path class="cls-5" d="M548.94,437.52l2.22,1.34-8.74,4.8L541,442.8l5.91-3.25.72-.39.71-.39L539.59,442l-1.5-.91,5.95-4.87-.7.39-.71.4-5.91,3.25-1.44-.87,8.74-4.8,2.25,1.36-5.53,4.59Z"/><path class="cls-5" d="M545.26,445.38l-1.53-.93,8.74-4.8,1.53.93Z"/><path class="cls-5" d="M560.82,444.7l-1.55.85-2.21-1.34-7.2,4-1.55-.94,7.2-4-2.22-1.34,1.55-.85Z"/><path class="cls-8" d="M553.64,375.58a2,2,0,0,1,.83.83l-.93.51a1.32,1.32,0,0,0-.59-.75,2.07,2.07,0,0,0-1.12-.28,2.64,2.64,0,0,0-1.25.34q-.58.32-.64.7c0,.25.11.48.45.68a4.45,4.45,0,0,0,1.26.42l-.89.49a4.7,4.7,0,0,1-1.39-.54q-.85-.52-.81-1.16t1-1.17a4.48,4.48,0,0,1,2.12-.56A3.59,3.59,0,0,1,553.64,375.58Z"/><path class="cls-8" d="M557.24,377.76a1.7,1.7,0,0,1,.73.75.9.9,0,0,1-.07.84,2.2,2.2,0,0,1-.86.76,4.34,4.34,0,0,1-2.82.48,3.62,3.62,0,0,1-1.29-.45,1.66,1.66,0,0,1-.72-.76.89.89,0,0,1,.08-.84,2.34,2.34,0,0,1,.9-.76,4.18,4.18,0,0,1,1.36-.46,4.45,4.45,0,0,1,1.45,0A3.55,3.55,0,0,1,557.24,377.76Zm-3.09.6a1.43,1.43,0,0,0-.74.7q-.11.36.32.62a1.79,1.79,0,0,0,1.07.23,3,3,0,0,0,1.28-.4c.42-.23.66-.46.72-.69s-.07-.44-.36-.62a1.76,1.76,0,0,0-1-.21A2.93,2.93,0,0,0,554.15,378.36Z"/><path class="cls-8" d="M562,380.61q.56.34.46.79t-.82.84L559,383.69l-.92-.56,2.53-1.39a.92.92,0,0,0,.48-.45q.07-.23-.21-.4a1.28,1.28,0,0,0-.55-.16,5,5,0,0,0-.91,0l-2.76,1.52-.92-.56,4.16-2.28.92.56-.58.32a4.29,4.29,0,0,1,1,0A2.19,2.19,0,0,1,562,380.61Z"/><path class="cls-8" d="M566.07,381.92l.08,0-1.1.61,1.2.73-.83.45-1.2-.73-1.92,1.05c-.19.1-.29.21-.31.33s.05.23.22.33a2.88,2.88,0,0,0,1,.3l-.88.48a3.87,3.87,0,0,1-1.2-.43q-.59-.36-.54-.77t.7-.77l2-1.09-.55-.33.18-.1Z"/><path class="cls-8" d="M568.19,384.38q.68.41.69.81t-.59.74l-2,1.12c-.16.09-.18.16-.07.23a.86.86,0,0,0,.26.08,1.93,1.93,0,0,0,.36,0l-.63.35a3.21,3.21,0,0,1-1.24-.34q-.25-.15-.28-.28t.16-.3a3.47,3.47,0,0,1-1.51-.4.59.59,0,0,1-.35-.56.74.74,0,0,1,.45-.56,2.36,2.36,0,0,1,1.12-.3,5,5,0,0,1,1.49.27l1,.31.19-.11q.61-.33,0-.71a2.47,2.47,0,0,0-.81-.29,4.49,4.49,0,0,0-1.09-.07l1-.54A4,4,0,0,1,568.19,384.38Zm-3.69,1.37q-.23.12-.24.27a.27.27,0,0,0,.16.26,1.88,1.88,0,0,0,.94.19l1.09-.6a9.1,9.1,0,0,0-.9-.21,2.87,2.87,0,0,0-.6,0A1.07,1.07,0,0,0,564.5,385.76Z"/><path class="cls-8" d="M572.33,386.89a2,2,0,0,1,.83.83l-.93.51a1.32,1.32,0,0,0-.59-.75,2.07,2.07,0,0,0-1.12-.28,2.64,2.64,0,0,0-1.25.34q-.58.32-.64.7c0,.25.11.48.45.68a4.45,4.45,0,0,0,1.26.42l-.89.49a4.7,4.7,0,0,1-1.39-.54q-.85-.52-.81-1.16t1-1.17a4.48,4.48,0,0,1,2.12-.56A3.59,3.59,0,0,1,572.33,386.89Z"/><path class="cls-8" d="M576.18,388l.08,0-1.1.61,1.2.73-.83.45-1.2-.73-1.92,1.05c-.19.1-.29.21-.31.33s.05.23.22.33a2.88,2.88,0,0,0,1,.3l-.88.48a3.87,3.87,0,0,1-1.2-.43q-.59-.36-.54-.77t.7-.77l2-1.09-.55-.33.18-.1Z"/><path class="cls-8" d="M583,390.67a2.92,2.92,0,0,1,1.23,1.24,1.46,1.46,0,0,1-.08,1.36,3.35,3.35,0,0,1-1.37,1.22,6.54,6.54,0,0,1-1.91.67,7.14,7.14,0,0,1-2.07.11,3.82,3.82,0,0,1-1.61-.47q-.63-.38-.1-.76a3.07,3.07,0,0,1-1.68-.31.94.94,0,0,1-.47-.57.82.82,0,0,1,.18-.69,2.44,2.44,0,0,1,.81-.66,6.22,6.22,0,0,1,1.7-.61,6.58,6.58,0,0,1,1.81-.15,3,3,0,0,1,1.34.36,1,1,0,0,1,.44.47.65.65,0,0,1-.07.57l.7-.25.85.51-4,1.49-.18.07c-.21.12-.25.22-.11.3a2.29,2.29,0,0,0,.94.15,5.91,5.91,0,0,0,1.49-.15,5.15,5.15,0,0,0,1.35-.49,2.52,2.52,0,0,0,1.05-1,1.16,1.16,0,0,0,0-1.09,2.5,2.5,0,0,0-1-1,5.48,5.48,0,0,0-2.08-.72,7.48,7.48,0,0,0-2.46.07,7.85,7.85,0,0,0-2.36.83,3.39,3.39,0,0,0-1.38,1.2,1.32,1.32,0,0,0,0,1.31,3.29,3.29,0,0,0,1.3,1.26,6.15,6.15,0,0,0,1.92.77,6.45,6.45,0,0,0,2,.11l.76.46a8,8,0,0,1-2.78,0,7.15,7.15,0,0,1-2.53-.95,3.9,3.9,0,0,1-1.54-1.5,1.63,1.63,0,0,1,0-1.6,4,4,0,0,1,1.65-1.46,9.28,9.28,0,0,1,2.09-.82,10,10,0,0,1,2.26-.35,8,8,0,0,1,2.12.21A6.5,6.5,0,0,1,583,390.67Zm-6.26,1.67a1.36,1.36,0,0,0-.64.59c-.08.2,0,.37.22.51a1.77,1.77,0,0,0,.91.19,5.36,5.36,0,0,0,1.31-.18,5.23,5.23,0,0,0,1.23-.46,1.27,1.27,0,0,0,.63-.59c.07-.2,0-.37-.25-.52a1.77,1.77,0,0,0-.91-.2,4.78,4.78,0,0,0-1.26.18A5.48,5.48,0,0,0,576.75,392.35Z"/><path class="cls-8" d="M585.55,395l-4.5,2.47a3.84,3.84,0,0,1-1.41.47,3.18,3.18,0,0,1-1.39-.14l.5-.77a1.83,1.83,0,0,0,1.53-.2l4.35-2.39Zm1.46-1.34a.31.31,0,0,1,.18.32.48.48,0,0,1-.28.33,1.27,1.27,0,0,1-.59.15,1,1,0,0,1-.54-.12.31.31,0,0,1-.18-.33.48.48,0,0,1,.28-.33,1.25,1.25,0,0,1,.6-.15A1,1,0,0,1,587,393.65Z"/><path class="cls-8" d="M588.33,396.57a1.7,1.7,0,0,1,.73.75.9.9,0,0,1-.07.84,2.2,2.2,0,0,1-.86.76,4.34,4.34,0,0,1-2.82.48,3.62,3.62,0,0,1-1.29-.45,1.66,1.66,0,0,1-.72-.76.89.89,0,0,1,.08-.84,2.34,2.34,0,0,1,.9-.76,4.18,4.18,0,0,1,1.36-.46,4.45,4.45,0,0,1,1.45,0A3.55,3.55,0,0,1,588.33,396.57Zm-3.09.6a1.43,1.43,0,0,0-.74.7q-.11.36.32.62a1.79,1.79,0,0,0,1.07.23,3,3,0,0,0,1.28-.4c.42-.23.66-.46.72-.69s-.07-.44-.36-.62a1.76,1.76,0,0,0-1-.21A2.93,2.93,0,0,0,585.23,397.17Z"/><path class="cls-8" d="M592.57,399.14q.77.47.64,1.06T592,401.37l-.17.09-2.49-1.5q-.5.34-.5.68t.51.66a2.81,2.81,0,0,0,.77.31,6.32,6.32,0,0,0,1,.16l-.81.45a4.51,4.51,0,0,1-2-.62q-.83-.5-.77-1.15t1-1.18a4.46,4.46,0,0,1,2-.56A3.32,3.32,0,0,1,592.57,399.14Zm-.9,1.43a1,1,0,0,0,.48-.53c0-.17-.05-.33-.28-.47a1.49,1.49,0,0,0-.81-.21,2.62,2.62,0,0,0-1,.23Z"/><path class="cls-8" d="M597.91,400.08l-6.21,3.41-.92-.56,6.21-3.41Z"/><path class="cls-8" d="M599.79,401.22l-2.33,1.28a2.85,2.85,0,0,1,1.28.37,1.18,1.18,0,0,1,.57.66.88.88,0,0,1-.17.77,2.57,2.57,0,0,1-.88.72,4.47,4.47,0,0,1-2.13.57,3.71,3.71,0,0,1-2-.53,3.56,3.56,0,0,1-1.21-1.14l5.94-3.27Zm-5.35,2.94a1.9,1.9,0,0,0,.57.48,1.7,1.7,0,0,0,1,.21,3.17,3.17,0,0,0,1.27-.41,1.29,1.29,0,0,0,.68-.67q.1-.34-.32-.59a1.39,1.39,0,0,0-.44-.17,3.72,3.72,0,0,0-.61-.07Z"/><path class="cls-8" d="M603.12,405.52a.68.68,0,0,1,.27.27,1,1,0,0,1,.09.43l-1.29.33a.73.73,0,0,0-.29-.59,1.33,1.33,0,0,0-.61-.15,3.1,3.1,0,0,0-.84.07,2.79,2.79,0,0,0-.75.27l-1.9,1-.92-.56,4.16-2.28.92.56-1.06.58h0a6.68,6.68,0,0,1,1.38-.17A1.64,1.64,0,0,1,603.12,405.52Z"/><path class="cls-8" d="M605.14,406.83l-2.57,1.41c-.27.15-.42.3-.44.44s.05.28.24.39a1.45,1.45,0,0,0,.62.18,2.76,2.76,0,0,0,.82-.05l2.75-1.51.93.56-4.16,2.28-.93-.56.57-.31a3.11,3.11,0,0,1-1.73-.3q-.56-.34-.47-.79t.79-.84l2.66-1.46Z"/><path class="cls-8" d="M611.39,408.24l-2.33,1.28a2.85,2.85,0,0,1,1.28.37,1.18,1.18,0,0,1,.57.66.88.88,0,0,1-.17.77,2.57,2.57,0,0,1-.88.72,4.47,4.47,0,0,1-2.13.57,3.71,3.71,0,0,1-2-.53,3.56,3.56,0,0,1-1.21-1.14l5.94-3.27ZM606,411.18a1.9,1.9,0,0,0,.57.48,1.7,1.7,0,0,0,1,.21,3.17,3.17,0,0,0,1.27-.41,1.29,1.29,0,0,0,.68-.67q.1-.34-.32-.59a1.39,1.39,0,0,0-.44-.17,3.72,3.72,0,0,0-.61-.07Z"/><path class="cls-8" d="M614,412.09q.68.41.69.81t-.59.74l-2,1.12c-.16.09-.18.16-.07.23a.86.86,0,0,0,.26.08,1.93,1.93,0,0,0,.36,0l-.63.35a3.21,3.21,0,0,1-1.24-.34q-.25-.15-.28-.28t.16-.3a3.47,3.47,0,0,1-1.51-.4.59.59,0,0,1-.35-.56.74.74,0,0,1,.45-.56,2.36,2.36,0,0,1,1.12-.3,5,5,0,0,1,1.49.27l1,.31.19-.11q.61-.33,0-.71a2.47,2.47,0,0,0-.81-.29,4.49,4.49,0,0,0-1.09-.07l1-.54A4,4,0,0,1,614,412.09Zm-3.69,1.37q-.23.12-.24.27a.27.27,0,0,0,.16.26,1.88,1.88,0,0,0,.94.19l1.09-.6a9.1,9.1,0,0,0-.9-.21,2.87,2.87,0,0,0-.6,0A1.07,1.07,0,0,0,610.29,413.46Z"/><path class="cls-8" d="M619.34,413l-6.21,3.41-.92-.56,6.21-3.41Zm.49,2.67-3.48.26-.5,2.13-1.17-.71.57-2.09,3.5-.25Z"/><path class="cls-8" d="M622,416.94q.77.47.64,1.06t-1.17,1.17l-.17.09-2.49-1.5q-.5.34-.5.68t.51.66a2.81,2.81,0,0,0,.77.31,6.32,6.32,0,0,0,1,.16l-.81.45a4.51,4.51,0,0,1-2-.62q-.83-.5-.77-1.15t1-1.18a4.46,4.46,0,0,1,2-.56A3.32,3.32,0,0,1,622,416.94Zm-.9,1.43a1,1,0,0,0,.48-.53c0-.17-.05-.33-.28-.47a1.49,1.49,0,0,0-.81-.21,2.62,2.62,0,0,0-1,.23Z"/><path class="cls-8" d="M626.41,419.6a.68.68,0,0,1,.27.27,1,1,0,0,1,.09.43l-1.29.33a.73.73,0,0,0-.29-.59,1.33,1.33,0,0,0-.61-.15,3.1,3.1,0,0,0-.84.07,2.79,2.79,0,0,0-.75.27l-1.9,1-.92-.56,4.16-2.28.92.56-1.06.58h0a6.68,6.68,0,0,1,1.38-.17A1.64,1.64,0,0,1,626.41,419.6Z"/><path class="cls-8" d="M624.61,421.93a.35.35,0,0,1,.2.35.52.52,0,0,1-.31.37,1.38,1.38,0,0,1-.65.16,1.11,1.11,0,0,1-.61-.14.35.35,0,0,1-.21-.36.52.52,0,0,1,.31-.37,1.39,1.39,0,0,1,.66-.16A1.12,1.12,0,0,1,624.61,421.93Z"/><path class="cls-8" d="M630.66,422.18a2,2,0,0,1,.83.83l-.93.51a1.32,1.32,0,0,0-.59-.75,2.07,2.07,0,0,0-1.12-.28,2.64,2.64,0,0,0-1.25.34q-.58.32-.64.7c0,.25.11.48.45.68a4.45,4.45,0,0,0,1.26.42l-.89.49a4.7,4.7,0,0,1-1.39-.54q-.85-.52-.81-1.16t1-1.17a4.48,4.48,0,0,1,2.12-.56A3.59,3.59,0,0,1,630.66,422.18Z"/><path class="cls-8" d="M634.26,424.36a1.7,1.7,0,0,1,.73.75.9.9,0,0,1-.07.84,2.2,2.2,0,0,1-.86.76,4.34,4.34,0,0,1-2.82.48,3.62,3.62,0,0,1-1.29-.45,1.66,1.66,0,0,1-.72-.76.89.89,0,0,1,.08-.84,2.34,2.34,0,0,1,.9-.76,4.18,4.18,0,0,1,1.36-.46,4.45,4.45,0,0,1,1.45,0A3.55,3.55,0,0,1,634.26,424.36Zm-3.09.6a1.43,1.43,0,0,0-.74.7q-.11.36.32.62a1.79,1.79,0,0,0,1.07.23,3,3,0,0,0,1.28-.4c.42-.23.66-.46.72-.69s-.07-.44-.36-.62a1.76,1.76,0,0,0-1-.21A2.93,2.93,0,0,0,631.17,425Z"/><path class="cls-8" d="M639,427.21a.87.87,0,0,1,.46.54.7.7,0,0,1-.18.59,5.73,5.73,0,0,1,1.22,0,2.22,2.22,0,0,1,.85.28c.37.22.53.48.47.78s-.33.57-.8.84l-2.66,1.46-.92-.56,2.48-1.36a1.11,1.11,0,0,0,.52-.47q.09-.23-.2-.41a2.46,2.46,0,0,0-1.46-.14L636,430.28l-.92-.56,2.5-1.37a1,1,0,0,0,.5-.47q.08-.23-.2-.4a1.31,1.31,0,0,0-.57-.17,5.08,5.08,0,0,0-.9,0l-2.76,1.52-.92-.56,4.16-2.28.92.56-.58.32a4.87,4.87,0,0,1,1,0A2.11,2.11,0,0,1,639,427.21Z"/><path class="cls-8" d="M523,390.82l.59.78,1.31-.72.8.48-1.31.72,1.33.38-.59.58-1.34-.4-.44,1-1.08-.08.38-.95-1.68.16-.09-.63,1.72-.21-.62-.79Z"/><path class="cls-8" d="M528.91,394.4l.59.78,1.31-.72.8.48-1.31.72,1.33.38-.59.58-1.34-.4-.44,1-1.08-.08.38-.95-1.68.16-.09-.63,1.72-.21-.62-.79Z"/><path class="cls-8" d="M534.83,398l.59.78,1.31-.72.8.48-1.31.72,1.33.38-.59.58-1.34-.4-.44,1-1.08-.08.38-.95-1.68.16-.09-.63,1.72-.21-.62-.79Z"/><path class="cls-8" d="M540.75,401.57l.59.78,1.31-.72.8.48-1.31.72,1.33.38-.59.58-1.34-.4-.44,1-1.08-.08.38-.95-1.68.16-.09-.63,1.72-.21-.62-.79Z"/><path class="cls-8" d="M546.67,405.15l.59.78,1.31-.72.8.48-1.31.72,1.33.38-.59.58-1.34-.4-.44,1-1.08-.08.38-.95-1.68.16-.09-.63,1.72-.21-.62-.79Z"/><path class="cls-8" d="M552.59,408.73l.59.78,1.31-.72.8.48L554,410l1.33.38-.59.58-1.34-.4-.44,1-1.08-.08.38-.95-1.68.16-.09-.63,1.72-.21-.62-.79Z"/><path class="cls-8" d="M558.52,412.32l.59.78,1.31-.72.8.48-1.31.72,1.33.38-.59.58-1.34-.4-.44,1-1.08-.08.38-.95-1.68.16-.09-.63,1.72-.21-.62-.79Z"/><polygon class="cls-7" points="610.43 453.89 596.96 445.74 612.9 436.98 626.37 445.13 610.43 453.89"/><path class="cls-5" d="M617.14,442.43l-5.78-1.2-3,1.64c-2.76,1.52-3.73,3.92-2.19,5.58a13.42,13.42,0,0,0,9.77-1l3-1.64Zm-5.47,3,2.95,1.78a11.75,11.75,0,0,1-7.4.66l4.45-2.44-2.95-1.78,2.84-1.56,4.5.93Z"/><path class="cls-6" d="M612.59,439.1l10.1,6.11-12,6.57-10.1-6.11Z"/></g></svg>