<svg xmlns="http://www.w3.org/2000/svg" viewBox="0 0 1280 800"><defs><style>.cls-1{fill:#de6262;}</style></defs><title>full-stack-illustration</title><g id="Layer_7" data-name="Layer 7"><polygon class="cls-1" points="869.77 340.85 867.79 339.74 865.49 341.06 867.47 342.17 869.77 340.85"/><polygon class="cls-1" points="585.22 420.51 587.2 421.62 589.5 420.3 587.52 419.19 585.22 420.51"/><polygon class="cls-1" points="767.29 292.59 769.28 293.7 771.57 292.38 769.59 291.27 767.29 292.59"/><polygon class="cls-1" points="776.48 287.32 771.88 289.95 773.87 291.06 778.46 288.43 776.48 287.32"/><path class="cls-1" d="M707.54,263c5,1.31,11.95.41,18.34-2.66l-6.94-3.89,9-5.15-10.51-1.83-6.54,3.76,6.94,3.89Z"/><path class="cls-1" d="M383.2,442.9l14.36,8,16.63-9.55-14.36-8Zm22.45-3.59,4.1,2.3-3.56,2-4.1-2.3ZM400.91,442l4.1,2.3-7.13,4.09-4.1-2.3Zm-1.4-6.17,5.13,2.87-5.94,3.41-5.13-2.87ZM392.38,440l5.13,2.87-4.75,2.73-5.13-2.87Z"/><polygon class="cls-1" points="451.77 421.54 447.81 419.32 437.47 425.25 441.44 427.48 451.77 421.54"/><polygon class="cls-1" points="425.58 418.59 436.48 424.7 441.07 422.06 430.17 415.95 425.58 418.59"/><polygon class="cls-1" points="431.32 415.3 442.22 421.4 446.82 418.76 435.91 412.66 431.32 415.3"/><polygon class="cls-1" points="555.34 408.99 553.36 407.88 551.07 409.2 553.05 410.31 555.34 408.99"/><polygon class="cls-1" points="557.95 405.24 559.94 406.35 562.23 405.04 560.25 403.93 557.95 405.24"/><polygon class="cls-1" points="578.33 424.47 580.31 425.58 582.61 424.26 580.63 423.15 578.33 424.47"/><polygon class="cls-1" points="708.28 427.99 716.21 432.43 729.99 424.52 722.05 420.08 708.28 427.99"/><polygon class="cls-1" points="544.18 413.16 546.16 414.27 548.46 412.95 546.47 411.84 544.18 413.16"/><path class="cls-1" d="M687.45,402c-3.84-2.15-10.53-1.82-15,.73s-4.93,6.35-1.1,8.5,10.53,1.82,15-.73S691.29,404.15,687.45,402Zm-12.63,7.25c-2.19-1.23-1.91-3.4.63-4.86s6.37-1.64,8.56-.42,1.91,3.4-.63,4.86S677,410.48,674.82,409.25Z"/><polygon class="cls-1" points="516.41 397.61 518.4 398.72 520.69 397.4 518.71 396.3 516.41 397.61"/><polygon class="cls-1" points="530.19 389.7 532.17 390.81 534.47 389.49 532.49 388.38 530.19 389.7"/><polygon class="cls-1" points="571.44 428.42 573.42 429.54 575.72 428.22 573.74 427.11 571.44 428.42"/><polygon class="cls-1" points="523.3 393.66 525.29 394.77 527.58 393.45 525.6 392.34 523.3 393.66"/><path class="cls-1" d="M578.17,496.22c-4.66,2.68-5.5,6.61-2.18,9.12l18.22-10.47C589.75,493,582.83,493.54,578.17,496.22Z"/><path class="cls-1" d="M578,506.44c4.1,1.71,10.24,1.41,14.83-.72l-6.87-3.85Z"/><path class="cls-1" d="M878.33,340.44l-9.92-5.55-11.48,6.59,9.92,5.55Zm-11.17,4.17-5.95-3.33,6.89-4,5.95,3.33Z"/><path class="cls-1" d="M635.39,464.23l17.85,10L669.31,465l-17.85-10Zm16-2.78.09,0a8.11,8.11,0,0,1,5.56.43c1.78,1,1.71,2.7,0,4h0c1.57.88,1.11,2.54-1.18,3.41a6,6,0,0,1-4.68-.18l-6.2-3.47c-1.42-.8-1.65-2.16-.33-3.25A7.32,7.32,0,0,1,651.36,461.45Z"/><path class="cls-1" d="M596.2,496l-8,4.57,6.87,3.85C598.8,501.78,599.26,498.28,596.2,496Z"/><path class="cls-1" d="M887.83,323.52l-134.6-78.36a52.82,52.82,0,0,0-51.92-.23L374.19,432.46c-16.29,9.34-15.2,21.15-.08,30L512.77,543a52.86,52.86,0,0,0,47.75-1.91l327.3-187.56C904.1,344.18,903,332.37,887.83,323.52Zm-30.27,13.1,2,1.11,2.3-1.32-2-1.11,2.3-1.32,2,1.11,2.3-1.32a4.86,4.86,0,0,1,4.28-.21l2,1.11,2.3-1.32,2,1.11-2.3,1.32,2,1.11,2.3-1.32,2,1.11-2.3,1.32,2,1.11c1.09.61.95,1.7-.31,2.43l-2.3,1.32,2,1.11-2.3,1.32-2-1.11-2.3,1.32,2,1.11-2.3,1.32-2-1.11-2.3,1.32a4.86,4.86,0,0,1-4.28.21l-2-1.11-2.3,1.32-2-1.11,2.3-1.32-2-1.11-2.3,1.32-2-1.11,2.3-1.32-2-1.11c-1.09-.61-.95-1.7.31-2.43l2.3-1.32-2-1.11ZM711.62,435.07l-7.93-4.44c-1.09-.61-.95-1.7.31-2.43l18.38-10.56a4.86,4.86,0,0,1,4.28-.21l7.92,4.45c1.09.61,1,1.7-.3,2.42L715.9,434.86A4.86,4.86,0,0,1,711.62,435.07Zm-1.3,1.87-2.3,1.32-2-1.11,2.3-1.32Zm-4-2.22L704,436l-2-1.11,2.3-1.32Zm-4-2.22-2.3,1.32-2-1.11,2.3-1.32ZM798.73,375l1.52-.87,2.22,1.25-1.52.87Zm50.51-22.51-2.49,1.43-1.31-.73,2.49-1.43Zm.67-1.87,2.49-1.43,1.31.73-2.49,1.43ZM844.78,355l-2.49,1.43-1.31-.73,2.49-1.43Zm-4.5,2.59-2.49,1.43-1.31-.73L839,356.9Zm-4.47,2.57-2.49,1.43-1.31-.73,2.49-1.43Zm-4.46,2.56-2.49,1.43-1.31-.73L830,362Zm-4.5,2.59-2.49,1.43-1.31-.73,2.49-1.43Zm-4.47,2.57-2.49,1.43-1.31-.73,2.49-1.43Zm-4.46,2.56-2.49,1.43-1.31-.73,2.49-1.43Zm-4.5,2.59-2.49,1.43-1.31-.73,2.49-1.43ZM809,375.62l-2.49,1.43-1.31-.73,2.49-1.43Zm-4.46,2.56L802,379.61l-1.31-.73,2.49-1.43Zm-4.5,2.59-2.49,1.43-1.31-.73,2.49-1.43Zm-4.47,2.57L793,384.76l-1.31-.73,2.49-1.43Zm-4.46,2.56-2.49,1.43-1.31-.73,2.49-1.43Zm-4.5,2.59-2.49,1.43-1.31-.73,2.49-1.43ZM782.1,391l-2.49,1.43-1.31-.73,2.49-1.43Zm-4.46,2.56L775.15,395l-1.31-.73,2.49-1.43Zm-4.5,2.59-2.49,1.43-1.31-.73,2.49-1.43Zm-4.47,2.57-2.49,1.43-1.31-.73,2.49-1.43Zm-4.46,2.56-2.49,1.43-1.31-.73,2.49-1.43Zm-4.5,2.59-2.49,1.43-1.31-.73,2.49-1.43Zm-4.47,2.57-2.49,1.43-1.31-.73,2.49-1.43ZM750.79,409l-2.49,1.43-1.31-.73,2.49-1.43Zm-4.5,2.59L743.8,413l-1.31-.73,2.49-1.43Zm-4.47,2.57-2.49,1.43-1.31-.73,2.49-1.43Zm-4.46,2.56-2.49,1.43-1.31-.73,2.49-1.43Zm61.11-43.6L797,374l-2.22-1.25,1.52-.87Zm-6.2-3.47,2.22,1.25-1.52.87-2.22-1.25ZM708.35,422l-1.52.87-1.74-1,1.52-.87Zm79.91-54.55,2.22,1.25-1.52.87-2.22-1.25Zm-4-2.23,2.22,1.25-1.52.87-2.22-1.25Zm-90.45,50.36-1.74-1,1.52-.87,1.74,1Zm-55.76,40.19-1.52.87-7.39-4.14,1.52-.87ZM780.29,363l2.22,1.25-1.52.87-2.22-1.25Zm-152.23,87.2,1.48.83-1.52.87-1.48-.83Zm42.08-37.09-2.37,1.36-2-1.11,2.37-1.36c-3.61-2.62-3.09-6.64,1.24-9.64l-2-1.14,2.3-1.32,2,1.14c5.24-2.49,12.33-2.84,17-.83l2.37-1.36,2,1.11-2.37,1.36c3.61,2.62,3.09,6.64-1.24,9.64l2,1.14-2.3,1.32-2-1.14C681.88,414.73,674.8,415.08,670.14,413.06Zm-45.8,35-1.52.87-7.39-4.14,1.52-.87Zm-8.51-4.75-1.52.87-1.48-.83,1.52-.87Zm-2.63-1.47-1.52.87-1.48-.83,1.52-.87Zm-2.57-1.45-1.52.87-7.39-4.14,1.52-.87Zm14.81,8.3,1.48.83-1.52.87-1.48-.83ZM760.34,368l.23-1.82,6.42-.31.47-3.64,3.21-.16-.71,5.47ZM842,318.82l2,1.11,4.59-2.64a2.43,2.43,0,0,1,2.14-.1c.55.31.47.85-.16,1.21L846,321l2,1.11-6.89,4-5.95-3.33Zm-9.19,5.28,5.95,3.33-2.3,1.32a7.7,7.7,0,0,1-5.22.75l-4.8,2.76-2-1.11,4.8-2.76c-.67-.92-.24-2.11,1.25-3Zm1.25-9.72,2,1.11,4.59-2.64a2.43,2.43,0,0,1,2.14-.1c.55.31.47.85-.16,1.21l-4.59,2.64,2,1.11-6.89,4-5.95-3.33Zm-9.19,5.28,5.95,3.33-2.3,1.32a7.7,7.7,0,0,1-5.22.75l-4.8,2.76-2-1.11,4.8-2.76c-.67-.92-.24-2.11,1.25-3Zm1.25-9.72,2,1.11,4.59-2.64a2.43,2.43,0,0,1,2.14-.1c.55.31.47.85-.16,1.21l-4.59,2.64,2,1.11-6.89,4-5.95-3.33ZM817,315.21l5.95,3.33-2.3,1.32a7.76,7.76,0,0,1-5.22.75l-4.8,2.76-2-1.11,4.8-2.76c-.67-.92-.24-2.11,1.25-3Zm-54.46,30.72a4.84,4.84,0,0,1,4.28-.21l17.85,10c1.1.61,1,1.7-.31,2.43l-9.19,5.28-2-1.11,9.19-5.28-17.85-10L750.75,355l14.87,8.33-2.3,1.32-2-1.11-2.3,1.32-7.93-4.44,2.3-1.32-5-2.78c-1.1-.61-1-1.7.31-2.43Zm-1.1,8.5,2.3-1.32,3,1.67,3.44-2,2,1.11-3.44,2,3,1.67-2.3,1.32-3-1.67-3.44,2-2-1.11,3.44-2ZM813.87,310l1.69.95-1.52.87-1.69-.95Zm-9.7-5.44,8.45,4.73-1.52.87-8.45-4.73Zm-3-1.65,1.69.95-1.52.87-1.69-.95Zm-3-1.69,1.69.95-1.52.87-1.69-.95Zm-9.7-5.44,8.45,4.73-1.52.87L787,296.65Zm-57.15,74a44.6,44.6,0,0,0,20.57-6.37l1.75,1a48.76,48.76,0,0,1-22.53,6.9c-11.26.49-21.56-3.33-31.81-8.64,15.1,13.59,13.84,25.56-3.86,35.73l-1.75-1c20.62-11.84,17.22-26.49-10-43.58-2.45-1.43-4.95-2.89-7.46-4.29l.11-.06,1.91-1.1.11-.06c2.64,1.48,5.09,2.94,7.4,4.39l1.49.87C702.05,362.25,716,370.45,731.34,369.79ZM602.11,435.62l-1.52.87-1.48-.83,1.52-.87Zm-47.28-30.83,4.59-2.64,19.83,11.1-4.59,2.64Zm17.53,12.42-4.59,2.64-19.83-11.1,4.59-2.64Zm-1.25-9.82-1.75-1,15.25-8.76c-20.6-11.48-27.75-13.29-41-5.67l-1.75-1c15.56-8.94,24.8-5.66,44.79,5.48L608,384.24l1.75,1-21.33,12.25c19.9,11.19,25.8,16.39,10.24,25.33l-1.75-1c13.27-7.62,10-11.65-10.52-23.19Zm-53.23-12.87,19.83,11.1-4.59,2.64-19.83-11.1ZM583,354.08l1.52-.87,12.62,7.07-1.52.87Zm-62.87,39.13,4.59-2.64,19.83,11.1L540,404.31Zm6.89-4,4.59-2.64,19.83,11.1-4.59,2.64Zm70.47-27,1.52-.87,2.52,1.41-1.52.87Zm146.15-55.66,1.92-1.1,1.31.73-1.92,1.1Zm-.19,1.59-1.92,1.1-1.31-.73,1.92-1.1Zm14.44-8.3-9.59,5.51L747,304.6l9.59-5.51Zm.13-1.55,1.92-1.1,1.31.73-1.92,1.1Zm-17.93,11.77-9.59,5.51-1.31-.73,9.59-5.51Zm-11,6.34-1.92,1.1-1.31-.73,1.92-1.1Zm2.32,6.92c1.09.61.95,1.7-.31,2.43l-18.37,10.55a4.86,4.86,0,0,1-4.28.21l-15.86-8.88c-1.09-.61-.95-1.7.31-2.43l18.37-10.55a4.86,4.86,0,0,1,4.28-.21Zm-34.06,9.58,1.75,1-53.39,30.67-1.75-1Zm-55,32.58c6,3.37,6.07,9,.59,13.44,4,2.6,3.24,6.85-1.81,9.75-5.28,3-13.27,3.42-17.83.87l-21.48-12c-5.47-3.06-4.77-8.51,1.57-12.15,5.91-3.4,14.66-4,20.25-1.6C630.31,362.28,637.6,362.8,642.37,365.47ZM572.9,425.34l19.83,11.1-4.59,2.64L568.31,428Zm2.3-1.32,4.59-2.64,19.83,11.1L595,435.12Zm6.89-4,4.59-2.64,19.83,11.1-4.59,2.64ZM785.51,294.13l1.69.95-1.52.87L784,295Zm1.14-11.53-10.91,18.64L753.93,289ZM667.12,342.17,672.3,345l-2,1.16-5.17-2.87-5.43-3c-15.76-8.82-30.33-18-29.1-27.85.56-4.51,4.5-8.89,11.71-13l1.75,1c-6.74,3.87-10.27,7.77-10.79,11.92C632,322.73,649.84,332.62,667.12,342.17Zm-84.48,10-1.52.87-2.52-1.41,1.52-.87Zm65.4-61.3,3.25-1.87c5.42,3,4.73,8.42-1.55,12l-2.81-1.57C651.41,296.86,651.91,293,648,290.85Zm-1.8,5.94a5.27,5.27,0,0,1-4.66.23c-1.19-.67-1-1.85.34-2.65a5.27,5.27,0,0,1,4.66-.23C647.78,294.8,647.62,296,646.24,296.78Zm6.3,5.79c8.07-4.64,9-11.56,2-15.46l3.25-1.87c8.52,4.77,7.43,13.23-2.44,18.9Zm12.71-16.33,36-20.66,1.75,1-36,20.66Zm51.65-38.8,13.52,2.36,4.33,7.63-6.89,4c-6.37,3.66-16.14,5-22.7,2.92-3.67-3.7-1.52-9.25,4.85-12.91ZM553.49,341.32l4,2.22,8.56-.42,3.65-2.1c-.67-.92-.24-2.11,1.25-3,2.1-1.21,5.37-1.25,6.88,0,1,.79.84,2-.27,2.87a7.43,7.43,0,0,1-5.89,1.21l-3.65,2.1-.63,4.86,4,2.22-5.74,3.3-5-2.78,3.5-2,.86-5-8.79.55-3.5,2-5-2.78ZM418.44,431l3.49-2,1.31.73-3.49,2ZM417,433.3l-3.49,2-1.31-.73,3.49-2Zm7.71-5.91,3.49-2,1.31.73-3.49,2Zm-1.43-7.48c-1.09-.61-1-1.7.31-2.43l13.79-7.91a4.84,4.84,0,0,1,4.27-.21l15.87,8.89c1.09.61.95,1.7-.31,2.43l-13.78,7.91a4.86,4.86,0,0,1-4.28.21Zm-9.73,26.51-2.05-1.15-2.38,1.36,2.05,1.15-2.38,1.36L406.74,448l-2.38,1.36,2.05,1.15L404,451.87,402,450.73l-2.38,1.36a5,5,0,0,1-4.43.22l-14.36-8c-1.13-.63-1-1.76.32-2.51l16.63-9.55a5,5,0,0,1,4.43-.22l14.36,8c1.13.63,1,1.76-.32,2.51l-2.38,1.36,2.05,1.15Zm.31,5.08-1.95-1.09,1.52-.87,1.95,1.09Zm106-59.65a26.48,26.48,0,0,0-14.78-3.78c-10.75.56-23.61,8.1-43.07,19.5q-4.25,2.49-9,5.24l-1.76-1q4.72-2.74,9-5.23c20.67-12.12,33.15-19.43,45-20a29.65,29.65,0,0,1,16.62,4.13Zm-94.76,65.92-9.74-5.46,1.52-.87,9.74,5.46Zm3.39,1.91-1.95-1.09,1.52-.87,1.95,1.09Zm3.47,1.94L430,460.54l1.52-.87,1.95,1.09Zm11.23,6.27-9.74-5.46,1.52-.87,9.74,5.46Zm102.47-57.83,19.83,11.1-4.59,2.64L541,412.71Zm-99.08,59.74-1.95-1.09,1.52-.87,1.95,1.09Zm3.47,1.94-1.95-1.09,1.52-.87,1.95,1.09ZM461.25,478l-9.74-5.46,1.52-.87,9.74,5.46Zm3.39,1.91-1.95-1.09,1.52-.87,1.95,1.09Zm16.88,7.44-.87-.49-2,1.16a4.24,4.24,0,0,1-3.77.18l-2.62-1.47-3.08,1.77c.25.56-.06,1.22-.92,1.72a4.68,4.68,0,0,1-4.14.2c-1.06-.59-.93-1.64.3-2.35a5,5,0,0,1,3-.55l3.08-1.77-2.62-1.47c-1-.54-.85-1.49.28-2.14l2.09-1.2c-.24-.56,0-1.21.9-1.71a4.7,4.7,0,0,1,4.14-.2c1.06.59.92,1.65-.3,2.35a5,5,0,0,1-3,.53l-2.09,1.2,2.62,1.47,8.08-4.64-1.75-1,6.66-.86-1.42,3.79-1.75-1-8.08,4.64,2.62,1.47,2-1.16-.87-.49,4-2.32,3.49,2Zm93.1-52.86,1.08-.62,1.75,1-1.09.62c-8.83,5-25.26,14.44-26.91,27-1.34,10.18,7.33,20.58,25.75,30.9l-2,1.16c-18.91-10.59-27.79-21.33-26.39-31.93C548.53,449.44,565.51,439.73,574.63,434.52Zm63,22.72,1.52-.87,1.48.83-1.52.87ZM485.28,491.5l-1.87-1,1.52-.87,1.87,1Zm10.74,6-9.33-5.22,1.52-.87,9.33,5.22Zm3.24,1.83-1.87-1,1.52-.87,1.87,1Zm3.32,1.86-1.87-1,1.52-.87,1.87,1Zm10.74,6L504,502l1.52-.87,9.33,5.22Zm3.24,1.83-1.87-1,1.52-.87,1.87,1Zm3.32,1.86-1.87-1,1.52-.87,1.87,1Zm10.74,6-9.33-5.22,1.52-.87,9.33,5.22Zm3.24,1.83-1.87-1,1.52-.87,1.87,1Zm169.92-97.58-8.68-4.86,1.52-.87,8.68,4.86ZM544,534.77,539,532l3.5-2,.86-5-8.79.55-3.5,2-5-2.78,5.74-3.3,4,2.22,8.56-.42,3.65-2.1c-.67-.92-.24-2.11,1.25-3,2.1-1.21,5.36-1.25,6.88,0,1,.79.84,2-.27,2.87a7.43,7.43,0,0,1-5.89,1.21l-3.65,2.1-.63,4.86,4,2.22Zm30.62-27.52c-5.45-3.05-4.75-8.52,1.57-12.15s15.94-4.1,21.4-1,4.75,8.52-1.57,12.15S580.07,510.3,574.62,507.25Zm80.61-31.92a4.86,4.86,0,0,1-4.28.21l-17.85-10c-1.09-.61-.95-1.7.31-2.43l16.07-9.23a4.86,4.86,0,0,1,4.28-.21l17.85,10c1.09.61.95,1.7-.31,2.43Z"/></g></svg>