<svg xmlns="http://www.w3.org/2000/svg" viewBox="0 0 620 506.37"><defs><style>.a{fill:#de6262;}</style></defs><title>layer</title><polygon class="a" points="548.77 201.04 546.79 199.93 544.49 201.25 546.47 202.36 548.77 201.04"/><polygon class="a" points="264.22 280.7 266.2 281.81 268.5 280.49 266.52 279.38 264.22 280.7"/><polygon class="a" points="446.29 152.78 448.28 153.89 450.57 152.57 448.59 151.46 446.29 152.78"/><polygon class="a" points="455.48 147.5 450.88 150.14 452.87 151.25 457.46 148.61 455.48 147.5"/><path class="a" d="M386.54,123.14c5,1.31,11.95.41,18.34-2.66l-6.94-3.89,9-5.15-10.51-1.83-6.54,3.76,6.94,3.89Z"/><path class="a" d="M62.2,303.09l14.36,8,16.63-9.55-14.36-8Zm22.45-3.59,4.1,2.3-3.56,2-4.1-2.3Zm-4.75,2.73,4.1,2.3-7.13,4.09-4.1-2.3Zm-1.4-6.17,5.13,2.87-5.94,3.41-5.13-2.87Zm-7.13,4.09L76.51,303l-4.75,2.73-5.13-2.87Z"/><polygon class="a" points="130.77 281.73 126.81 279.5 116.47 285.44 120.44 287.66 130.77 281.73"/><polygon class="a" points="104.58 278.78 115.48 284.89 120.08 282.25 109.17 276.14 104.58 278.78"/><polygon class="a" points="110.32 275.48 121.22 281.59 125.82 278.95 114.91 272.84 110.32 275.48"/><polygon class="a" points="234.34 269.18 232.36 268.07 230.06 269.39 232.05 270.5 234.34 269.18"/><polygon class="a" points="236.95 265.43 238.94 266.54 241.23 265.22 239.25 264.11 236.95 265.43"/><polygon class="a" points="257.33 284.65 259.31 285.76 261.61 284.44 259.63 283.33 257.33 284.65"/><polygon class="a" points="387.28 288.18 395.21 292.62 408.99 284.7 401.06 280.26 387.28 288.18"/><polygon class="a" points="223.18 273.34 225.16 274.45 227.46 273.14 225.47 272.03 223.18 273.34"/><path class="a" d="M366.45,262.18c-3.84-2.15-10.53-1.82-15,.73s-4.93,6.35-1.1,8.5,10.53,1.82,15-.73S370.29,264.33,366.45,262.18Zm-12.63,7.25c-2.19-1.23-1.91-3.4.63-4.86s6.37-1.64,8.56-.42,1.91,3.4-.63,4.86S356,270.66,353.82,269.44Z"/><polygon class="a" points="195.41 257.8 197.4 258.91 199.69 257.59 197.71 256.48 195.41 257.8"/><polygon class="a" points="209.19 249.89 211.17 251 213.47 249.68 211.49 248.57 209.19 249.89"/><polygon class="a" points="250.44 288.61 252.43 289.72 254.72 288.4 252.74 287.29 250.44 288.61"/><polygon class="a" points="202.3 253.84 204.29 254.95 206.58 253.63 204.6 252.53 202.3 253.84"/><path class="a" d="M257.17,356.4c-4.66,2.68-5.5,6.61-2.18,9.12l18.22-10.47C268.75,353.2,261.83,353.72,257.17,356.4Z"/><path class="a" d="M257,366.63c4.1,1.71,10.24,1.41,14.83-.72l-6.87-3.85Z"/><path class="a" d="M557.33,200.62l-9.92-5.55-11.48,6.59,9.92,5.55Zm-11.17,4.17-5.95-3.33,6.89-4,5.95,3.33Z"/><path class="a" d="M314.39,324.42l17.85,10,16.07-9.23-17.85-10Zm16-2.78.09,0a8.11,8.11,0,0,1,5.56.43c1.78,1,1.71,2.7,0,4h0c1.57.88,1.11,2.54-1.18,3.41a6,6,0,0,1-4.68-.18l-6.2-3.47c-1.42-.8-1.65-2.16-.33-3.25A7.32,7.32,0,0,1,330.36,321.64Z"/><path class="a" d="M275.2,356.17l-8,4.57,6.87,3.85C277.8,362,278.26,358.47,275.2,356.17Z"/><path class="a" d="M566.83,183.71l-134.6-78.36a52.82,52.82,0,0,0-51.92-.23L53.19,292.65c-16.29,9.34-15.2,21.15-.08,30l138.66,80.49a52.86,52.86,0,0,0,47.75-1.91l327.3-187.56C583.1,204.37,582,192.55,566.83,183.71Zm-30.27,13.1,2,1.11,2.3-1.32-2-1.11,2.3-1.32,2,1.11,2.3-1.32a4.86,4.86,0,0,1,4.28-.21l2,1.11,2.3-1.32,2,1.11-2.3,1.32,2,1.11,2.3-1.32,2,1.11-2.3,1.32,2,1.11c1.09.61.95,1.7-.31,2.43l-2.3,1.32,2,1.11-2.3,1.32-2-1.11-2.3,1.32,2,1.11-2.3,1.32-2-1.11-2.3,1.32a4.86,4.86,0,0,1-4.28.21l-2-1.11-2.3,1.32-2-1.11,2.3-1.32-2-1.11-2.3,1.32-2-1.11,2.3-1.32-2-1.11c-1.09-.61-.95-1.7.31-2.43l2.3-1.32-2-1.11ZM390.62,295.26l-7.93-4.44c-1.09-.61-.95-1.7.31-2.43l18.38-10.56a4.86,4.86,0,0,1,4.28-.21l7.92,4.45c1.09.61,1,1.7-.3,2.42L394.9,295A4.86,4.86,0,0,1,390.62,295.26Zm-1.3,1.87-2.3,1.32-2-1.11,2.3-1.32Zm-4-2.22-2.3,1.32-2-1.11,2.3-1.32Zm-4-2.22-2.3,1.32-2-1.11,2.3-1.32Zm96.35-57.5,1.52-.87,2.22,1.25-1.52.87Zm50.51-22.51-2.49,1.43-1.31-.73,2.49-1.43Zm.67-1.87,2.49-1.43,1.31.73-2.49,1.43Zm-5.12,4.43-2.49,1.43-1.31-.73,2.49-1.43Zm-4.5,2.59-2.49,1.43-1.31-.73,2.49-1.43Zm-4.47,2.57-2.49,1.43-1.31-.73,2.49-1.43Zm-4.46,2.56-2.49,1.43-1.31-.73,2.49-1.43Zm-4.5,2.59L503.36,227l-1.31-.73,2.49-1.43Zm-4.47,2.57-2.49,1.43-1.31-.73,2.49-1.43Zm-4.46,2.56-2.49,1.43-1.31-.73,2.49-1.43Zm-4.5,2.59-2.49,1.43-1.31-.73,2.49-1.43ZM488,235.81l-2.49,1.43-1.31-.73,2.49-1.43Zm-4.46,2.56L481,239.8l-1.31-.73,2.49-1.43ZM479,241l-2.49,1.43-1.31-.73,2.49-1.43Zm-4.47,2.57L472,245l-1.31-.73,2.49-1.43Zm-4.46,2.56-2.49,1.43-1.31-.73,2.49-1.43Zm-4.5,2.59-2.49,1.43-1.31-.73,2.49-1.43Zm-4.47,2.57-2.49,1.43-1.31-.73,2.49-1.43Zm-4.46,2.56-2.49,1.43-1.31-.73,2.49-1.43Zm-4.5,2.59-2.49,1.43-1.31-.73,2.49-1.43Zm-4.47,2.57-2.49,1.43-1.31-.73,2.49-1.43Zm-4.46,2.56-2.49,1.43-1.31-.73,2.49-1.43Zm-4.5,2.59-2.49,1.43-1.31-.73,2.49-1.43Zm-4.47,2.57-2.49,1.43-1.31-.73,2.49-1.43Zm-4.46,2.56-2.49,1.43-1.31-.73,2.49-1.43Zm-4.5,2.59-2.49,1.43-1.31-.73,2.49-1.43Zm-4.47,2.57-2.49,1.43-1.31-.73,2.49-1.43Zm-4.46,2.56-2.49,1.43-1.31-.73,2.49-1.43Zm61.11-43.6-1.52.87L473.74,233l1.52-.87Zm-6.2-3.47,2.22,1.25L472,232l-2.22-1.25Zm-83.92,52.3-1.52.87-1.74-1,1.52-.87Zm79.91-54.55,2.22,1.25-1.52.87-2.22-1.25Zm-4-2.23,2.22,1.25-1.52.87-2.22-1.25Zm-90.45,50.36-1.74-1,1.52-.87,1.74,1Zm-55.76,40.19-1.52.87-7.39-4.14,1.52-.87Zm142.24-92.78,2.22,1.25-1.52.87L457.78,224Zm-152.23,87.2,1.48.83L307,312l-1.48-.83Zm42.08-37.09-2.37,1.36-2-1.11,2.37-1.36c-3.61-2.62-3.09-6.64,1.24-9.64l-2-1.14,2.3-1.32,2,1.14c5.24-2.49,12.33-2.84,17-.83l2.37-1.36,2,1.11-2.37,1.36c3.61,2.62,3.09,6.64-1.24,9.64l2,1.14-2.3,1.32-2-1.14C360.88,274.92,353.8,275.26,349.14,273.25Zm-45.8,35-1.52.87L294.43,305l1.52-.87Zm-8.51-4.75-1.52.87-1.48-.83,1.52-.87ZM292.19,302l-1.52.87-1.48-.83,1.52-.87Zm-2.57-1.45-1.52.87-7.39-4.14,1.52-.87Zm14.81,8.3,1.48.83-1.52.87-1.48-.83Zm134.91-80.68.23-1.82,6.42-.31.47-3.64,3.21-.16-.71,5.47ZM521,179l2,1.11,4.59-2.64a2.43,2.43,0,0,1,2.14-.1c.55.31.47.85-.16,1.21L525,181.23l2,1.11-6.89,4L514.16,183Zm-9.19,5.28,5.95,3.33-2.3,1.32a7.7,7.7,0,0,1-5.22.75l-4.8,2.76-2-1.11,4.8-2.76c-.67-.92-.24-2.11,1.25-3Zm1.25-9.72,2,1.11,4.59-2.64a2.43,2.43,0,0,1,2.14-.1c.55.31.47.85-.16,1.21l-4.59,2.64,2,1.11-6.89,4-5.95-3.33Zm-9.19,5.28,5.95,3.33-2.3,1.32a7.7,7.7,0,0,1-5.22.75l-4.8,2.76-2-1.11,4.8-2.76c-.67-.92-.24-2.11,1.25-3Zm1.25-9.72,2,1.11,4.59-2.64a2.43,2.43,0,0,1,2.14-.1c.55.31.47.85-.16,1.21l-4.59,2.64,2,1.11-6.89,4-5.95-3.33ZM496,175.4l5.95,3.33-2.3,1.32a7.76,7.76,0,0,1-5.22.75l-4.8,2.76-2-1.11,4.8-2.76c-.67-.92-.24-2.11,1.25-3Zm-54.46,30.72a4.84,4.84,0,0,1,4.28-.21l17.85,10c1.1.61,1,1.7-.31,2.43l-9.19,5.28-2-1.11,9.19-5.28-17.85-10-13.78,7.91,14.87,8.33-2.3,1.32-2-1.11L438,225l-7.93-4.44,2.3-1.32-5-2.78c-1.1-.61-1-1.7.31-2.43Zm-1.1,8.5,2.3-1.32,3,1.67,3.44-2,2,1.11-3.44,2,3,1.67-2.3,1.32-3-1.67-3.44,2-2-1.11,3.44-2Zm52.43-44.43,1.69.95L493,172l-1.69-.95Zm-9.7-5.44,8.45,4.73-1.52.87-8.45-4.73Zm-3-1.65,1.69.95-1.52.87-1.69-.95Zm-3-1.69,1.69.95-1.52.87-1.69-.95Zm-9.7-5.44,8.45,4.73-1.52.87L466,156.84Zm-57.15,74a44.6,44.6,0,0,0,20.57-6.37l1.75,1a48.76,48.76,0,0,1-22.53,6.9c-11.26.49-21.56-3.33-31.81-8.64,15.1,13.59,13.84,25.56-3.86,35.73l-1.75-1c20.62-11.84,17.22-26.49-10-43.58-2.45-1.43-4.95-2.89-7.46-4.29l.11-.06,1.91-1.1.11-.06c2.64,1.48,5.09,2.94,7.4,4.39l1.49.87C381.05,222.44,395,230.64,410.34,230ZM281.11,295.81l-1.52.87-1.48-.83,1.52-.87ZM233.82,265l4.59-2.64,19.83,11.1-4.59,2.64Zm17.53,12.42L246.76,280l-19.83-11.1,4.59-2.64Zm-1.25-9.82-1.75-1,15.25-8.76c-20.6-11.48-27.75-13.29-41-5.67l-1.75-1c15.56-8.94,24.8-5.66,44.79,5.48L287,244.43l1.75,1-21.33,12.25c19.9,11.19,25.8,16.39,10.24,25.33l-1.75-1c13.27-7.62,10-11.65-10.52-23.19Zm-53.23-12.87,19.83,11.1-4.59,2.64-19.83-11.1ZM262,214.26l1.52-.87,12.62,7.07-1.52.87Zm-62.87,39.13,4.59-2.64,19.83,11.1L219,264.5Zm6.89-4,4.59-2.64,19.83,11.1-4.59,2.64Zm70.47-27,1.52-.87,2.52,1.41-1.52.87Zm146.15-55.66,1.92-1.1,1.31.73-1.92,1.1Zm-.19,1.59-1.92,1.1-1.31-.73,1.92-1.1Zm14.44-8.3-9.59,5.51-1.31-.73,9.59-5.51Zm.13-1.55,1.92-1.1,1.31.73-1.92,1.1Zm-17.93,11.77-9.59,5.51-1.31-.73,9.59-5.51Zm-11,6.34-1.92,1.1-1.31-.73,1.92-1.1Zm2.32,6.92c1.09.61.95,1.7-.31,2.43l-18.37,10.55a4.86,4.86,0,0,1-4.28.21l-15.86-8.88c-1.09-.61-.95-1.7.31-2.43l18.37-10.55a4.86,4.86,0,0,1,4.28-.21Zm-34.06,9.58,1.75,1-53.39,30.67-1.75-1Zm-55,32.58c6,3.37,6.07,9,.59,13.44,4,2.6,3.24,6.85-1.81,9.75-5.28,3-13.27,3.42-17.83.87l-21.48-12c-5.47-3.06-4.77-8.51,1.57-12.15,5.91-3.4,14.66-4,20.25-1.6C309.31,222.46,316.6,223,321.37,225.66ZM251.9,285.52l19.83,11.1-4.59,2.64-19.83-11.1Zm2.3-1.32,4.59-2.64,19.83,11.1L274,295.31Zm6.89-4,4.59-2.64,19.83,11.1-4.59,2.64ZM464.51,154.32l1.69.95-1.52.87-1.69-.95Zm1.14-11.53-10.91,18.64-21.81-12.21ZM346.12,202.36l5.18,2.87-2,1.16-5.17-2.87-5.43-3c-15.76-8.82-30.33-18-29.1-27.85.56-4.51,4.5-8.89,11.71-13l1.75,1c-6.74,3.87-10.27,7.77-10.79,11.92C311,182.92,328.84,192.81,346.12,202.36Zm-84.48,10-1.52.87-2.52-1.41,1.52-.87ZM327,151l3.25-1.87c5.42,3,4.73,8.42-1.55,12l-2.81-1.57C330.41,157,330.91,153.2,327,151Zm-1.8,5.94a5.27,5.27,0,0,1-4.66.23c-1.19-.67-1-1.85.34-2.65a5.27,5.27,0,0,1,4.66-.23C326.78,155,326.62,156.18,325.24,157Zm6.3,5.79c8.07-4.64,9-11.56,2-15.46l3.25-1.87c8.52,4.77,7.43,13.23-2.44,18.9Zm12.71-16.33,36-20.66,1.75,1-36,20.66Zm51.65-38.8L409.42,110l4.33,7.63-6.89,4c-6.37,3.66-16.14,5-22.7,2.92-3.67-3.7-1.52-9.25,4.85-12.91ZM232.49,201.5l4,2.22,8.56-.42,3.65-2.1c-.67-.92-.24-2.11,1.25-3,2.1-1.21,5.37-1.25,6.88,0,1,.79.84,2-.27,2.87a7.43,7.43,0,0,1-5.89,1.21l-3.65,2.1-.63,4.86,4,2.22-5.74,3.3-5-2.78,3.5-2,.86-5-8.79.55-3.5,2-5-2.78Zm-135,89.67,3.49-2,1.31.73-3.49,2ZM96,293.49l-3.49,2-1.31-.73,3.49-2Zm7.71-5.91,3.49-2,1.31.73-3.49,2Zm-1.43-7.48c-1.09-.61-1-1.7.31-2.43l13.79-7.91a4.84,4.84,0,0,1,4.27-.21l15.87,8.89c1.09.61.95,1.7-.31,2.43l-13.78,7.91a4.86,4.86,0,0,1-4.28.21ZM92.54,306.6l-2.05-1.15-2.38,1.36L90.16,308l-2.38,1.36-2.05-1.15-2.38,1.36,2.05,1.15L83,312.06,81,310.91l-2.38,1.36a5,5,0,0,1-4.43.22l-14.36-8c-1.13-.63-1-1.76.32-2.51l16.63-9.55a5,5,0,0,1,4.43-.22l14.36,8c1.13.63,1,1.76-.32,2.51l-2.38,1.36,2.05,1.15Zm.31,5.08L90.9,310.6l1.52-.87,1.95,1.09Zm106-59.65a26.48,26.48,0,0,0-14.78-3.78c-10.75.56-23.61,8.1-43.07,19.5q-4.25,2.49-9,5.24l-1.76-1q4.72-2.74,9-5.23c20.67-12.12,33.15-19.43,45-20a29.65,29.65,0,0,1,16.62,4.13ZM104.08,318l-9.74-5.46,1.52-.87,9.74,5.46Zm3.39,1.91-1.95-1.09,1.52-.87L109,319Zm3.47,1.94L109,320.72l1.52-.87,1.95,1.09Zm11.23,6.27-9.74-5.46,1.52-.87,9.74,5.46Zm102.47-57.83,19.83,11.1L239.87,284,220,272.89ZM125.56,330l-1.95-1.09,1.52-.87,1.95,1.09Zm3.47,1.94-1.95-1.09,1.52-.87,1.95,1.09Zm11.23,6.27-9.74-5.46,1.52-.87,9.74,5.46Zm3.39,1.91L141.69,339l1.52-.87,1.95,1.09Zm16.88,7.44-.87-.49-2,1.16a4.24,4.24,0,0,1-3.77.18L151.25,347l-3.08,1.77c.25.56-.06,1.22-.92,1.72a4.68,4.68,0,0,1-4.14.2c-1.06-.59-.93-1.64.3-2.35a5,5,0,0,1,3-.55L149.5,346l-2.62-1.47c-1-.54-.85-1.49.28-2.14l2.09-1.2c-.24-.56,0-1.21.9-1.71a4.7,4.7,0,0,1,4.14-.2c1.06.59.92,1.65-.3,2.35a5,5,0,0,1-3,.53l-2.09,1.2,2.62,1.47,8.08-4.64-1.75-1,6.66-.86-1.42,3.79-1.75-1-8.08,4.64,2.62,1.47,2-1.16-.87-.49,4-2.32,3.49,2Zm93.1-52.86,1.08-.62,1.75,1-1.09.62c-8.83,5-25.26,14.44-26.91,27-1.34,10.18,7.33,20.58,25.75,30.9l-2,1.16c-18.91-10.59-27.79-21.33-26.39-31.93C227.53,309.63,244.51,299.92,253.63,294.7Zm63,22.72,1.52-.87,1.48.83-1.52.87ZM164.28,351.68l-1.87-1,1.52-.87,1.87,1Zm10.74,6-9.33-5.22,1.52-.87,9.33,5.22Zm3.24,1.83-1.87-1,1.52-.87,1.87,1Zm3.32,1.86-1.87-1,1.52-.87,1.87,1Zm10.74,6L183,362.16l1.52-.87,9.33,5.22Zm3.24,1.83-1.87-1,1.52-.87,1.87,1Zm3.32,1.86L197,370l1.52-.87,1.87,1Zm10.74,6-9.33-5.22,1.52-.87,9.33,5.22Zm3.24,1.83-1.87-1,1.52-.87,1.87,1Zm169.92-97.58-8.68-4.86,1.52-.87,8.68,4.86ZM223,395l-5-2.78,3.5-2,.86-5-8.79.55-3.5,2-5-2.78,5.74-3.3,4,2.22,8.56-.42,3.65-2.1c-.67-.92-.24-2.11,1.25-3,2.1-1.21,5.36-1.25,6.88,0,1,.79.84,2-.27,2.87a7.43,7.43,0,0,1-5.89,1.21l-3.65,2.1-.63,4.86,4,2.22Zm30.62-27.52c-5.45-3.05-4.75-8.52,1.57-12.15s15.94-4.1,21.4-1,4.75,8.52-1.57,12.15S259.07,370.49,253.62,367.44Zm80.61-31.92a4.86,4.86,0,0,1-4.28.21l-17.85-10c-1.09-.61-.95-1.7.31-2.43l16.07-9.23a4.86,4.86,0,0,1,4.28-.21l17.85,10c1.09.61.95,1.7-.31,2.43Z"/></svg>