<svg xmlns="http://www.w3.org/2000/svg" viewBox="0 0 1280 800"><defs><style>.cls-1{fill:#231f20;}.cls-2{fill:#ffb88c;}.cls-3{fill:#969eb2;}.cls-4{fill:#de6262;}</style></defs><title>full-stack-illustration</title><g id="Layer_7" data-name="Layer 7"><path class="cls-1" d="M887.51,323.14c15.2,8.83,16.32,20.66.09,30L561.35,541.53c-14.8,8.55-33.05,8.71-47.68,2L374.92,463.17c-15.12-8.87-16.25-20.7,0-30.08L701,244.76a52.63,52.63,0,0,1,51.85.14Z"/><path class="cls-2" d="M714.18,357.56l-90.72-51.68c-1-.59-.87-1.61.38-2.27l4.36-2.31a4.83,4.83,0,0,1,4.15-.12l90.72,51.68c1,.59.87,1.61-.38,2.27l-4.36,2.31A4.83,4.83,0,0,1,714.18,357.56Z"/><path class="cls-3" d="M785.05,397.94l-61.19-34.86c-1-.59-.87-1.61.38-2.27l4.36-2.31a4.83,4.83,0,0,1,4.15-.12l61.19,34.86c1,.59.87,1.61-.38,2.27l-4.36,2.31A4.83,4.83,0,0,1,785.05,397.94Z"/><path class="cls-2" d="M655.05,343.42,617.49,322c-1-.59-.87-1.61.38-2.27l4.36-2.31a4.83,4.83,0,0,1,4.15-.12l37.57,21.4c1,.59.87,1.61-.38,2.27l-4.36,2.31A4.83,4.83,0,0,1,655.05,343.42Z"/><path class="cls-3" d="M708.21,373.7l-43.47-24.76c-1-.59-.87-1.61.38-2.27l4.36-2.31a4.83,4.83,0,0,1,4.15-.12L717.1,369c1,.59.87,1.61-.38,2.27l-4.36,2.31A4.83,4.83,0,0,1,708.21,373.7Z"/><path class="cls-4" d="M761.36,404l-44.65-25.44c-1-.59-.87-1.61.38-2.27l4.36-2.31a4.83,4.83,0,0,1,4.15-.12l44.65,25.44c1,.59.87,1.61-.38,2.27l-4.36,2.31A4.83,4.83,0,0,1,761.36,404Z"/><path class="cls-4" d="M649.08,359.55l-37.57-21.4c-1-.59-.87-1.61.38-2.27l4.36-2.31a4.83,4.83,0,0,1,4.15-.12L658,354.85c1,.59.87,1.61-.38,2.27l-4.36,2.31A4.83,4.83,0,0,1,649.08,359.55Z"/><path class="cls-3" d="M714,396.56l-55.28-31.49c-1-.59-.87-1.61.38-2.27l4.36-2.31a4.83,4.83,0,0,1,4.15-.12l55.28,31.49c1,.59.87,1.61-.38,2.27l-4.36,2.31A4.83,4.83,0,0,1,714,396.56Z"/><path class="cls-3" d="M643.11,375.68l-49.38-28.13c-1-.59-.87-1.61.38-2.27l4.36-2.31a4.83,4.83,0,0,1,4.15-.12L652,371c1,.59.87,1.61-.38,2.27l-4.36,2.31A4.83,4.83,0,0,1,643.11,375.68Z"/><path class="cls-2" d="M750,260.76l-19.85-11.31c-1-.59-.87-1.61.38-2.27l4.36-2.31a4.83,4.83,0,0,1,4.15-.12l19.85,11.31c1,.59.87,1.61-.38,2.27l-4.36,2.31A4.83,4.83,0,0,1,750,260.76Z"/><path class="cls-4" d="M803.09,310.54l-90.72-51.68c-1-.59-.87-1.61.38-2.27l4.36-2.31a4.83,4.83,0,0,1,4.15-.12L812,305.84c1,.59.87,1.61-.38,2.27l-4.36,2.31A4.83,4.83,0,0,1,803.09,310.54Z"/><path class="cls-2" d="M874,350.91l-61.19-34.86c-1-.59-.87-1.61.38-2.27l4.36-2.31a4.83,4.83,0,0,1,4.15-.12l61.19,34.86c1,.59.87,1.61-.38,2.27l-4.36,2.31A4.83,4.83,0,0,1,874,350.91Z"/><path class="cls-2" d="M744,296.39,706.4,275c-1-.59-.87-1.61.38-2.27l4.36-2.31a4.83,4.83,0,0,1,4.15-.12l37.57,21.4c1,.59.87,1.61-.38,2.27l-4.36,2.31A4.83,4.83,0,0,1,744,296.39Z"/><path class="cls-4" d="M797.12,326.67l-43.47-24.76c-1-.59-.87-1.61.38-2.27l4.36-2.31a4.83,4.83,0,0,1,4.15-.12L806,322c1,.59.87,1.61-.38,2.27l-4.36,2.31A4.83,4.83,0,0,1,797.12,326.67Z"/><path class="cls-4" d="M850.27,357l-44.65-25.44c-1-.59-.87-1.61.38-2.27l4.36-2.31a4.83,4.83,0,0,1,4.15-.12l44.65,25.44c1,.59.87,1.61-.38,2.27l-4.36,2.31A4.83,4.83,0,0,1,850.27,357Z"/><path class="cls-3" d="M738,312.53l-37.57-21.4c-1-.59-.87-1.61.38-2.27l4.36-2.31a4.83,4.83,0,0,1,4.15-.12l37.57,21.4c1,.59.87,1.61-.38,2.27l-4.36,2.31A4.83,4.83,0,0,1,738,312.53Z"/><path class="cls-4" d="M743.84,335.39l-49.38-28.13c-1-.59-.87-1.61.38-2.27l4.36-2.31a4.83,4.83,0,0,1,4.15-.12l49.38,28.13c1,.59.87,1.61-.38,2.27L748,335.27A4.83,4.83,0,0,1,743.84,335.39Z"/><path class="cls-2" d="M684.71,321.24l-19.85-11.31c-1-.59-.87-1.61.38-2.27l4.36-2.31a4.83,4.83,0,0,1,4.15-.12l19.85,11.31c1,.59.87,1.61-.38,2.27l-4.36,2.31A4.83,4.83,0,0,1,684.71,321.24Z"/><path class="cls-2" d="M591.18,423.26l-90.72-51.68c-1-.59-.87-1.61.38-2.27L505.2,367a4.83,4.83,0,0,1,4.15-.12l90.72,51.68c1,.59.87,1.61-.38,2.27l-4.36,2.31A4.83,4.83,0,0,1,591.18,423.26Z"/><path class="cls-3" d="M662.05,463.64l-61.19-34.86c-1-.59-.87-1.61.38-2.27l4.36-2.31a4.83,4.83,0,0,1,4.15-.12l61.19,34.86c1,.59.87,1.61-.38,2.27l-4.36,2.31A4.83,4.83,0,0,1,662.05,463.64Z"/><path class="cls-2" d="M602.3,372l-49.38-28.13c-1-.59-.87-1.61.38-2.27l4.36-2.31a4.83,4.83,0,0,1,4.15-.12l49.38,28.13c1,.59.87,1.61-.38,2.27l-4.36,2.31A4.83,4.83,0,0,1,602.3,372Z"/><path class="cls-4" d="M655.45,402.25,612,377.48c-1-.59-.87-1.61.38-2.27l4.36-2.31a4.83,4.83,0,0,1,4.15-.12l43.47,24.76c1,.59.87,1.61-.38,2.27l-4.36,2.31A4.83,4.83,0,0,1,655.45,402.25Z"/><path class="cls-4" d="M708.61,432.53,664,407.09c-1-.59-.87-1.61.38-2.27l4.36-2.31a4.83,4.83,0,0,1,4.15-.12l44.65,25.44c1,.59.87,1.61-.38,2.27l-4.36,2.31A4.83,4.83,0,0,1,708.61,432.53Z"/><path class="cls-3" d="M625.86,404.92l-78.91-45c-1-.59-.87-1.61.38-2.27l4.36-2.31a4.83,4.83,0,0,1,4.15-.12l78.91,45c1,.59.87,1.61-.38,2.27L630,404.8A4.83,4.83,0,0,1,625.86,404.92Z"/><path class="cls-4" d="M589.77,403.9l-49.38-28.13c-1-.59-.87-1.61.38-2.27l4.36-2.31a4.83,4.83,0,0,1,4.15-.12l49.38,28.13c1,.59.87,1.61-.38,2.27l-4.36,2.31A4.83,4.83,0,0,1,589.77,403.9Z"/><path class="cls-3" d="M826.59,363l-78.91-45c-1-.59-.87-1.61.38-2.27l4.36-2.31a4.83,4.83,0,0,1,4.15-.12l78.91,45c1,.59.87,1.61-.38,2.27l-4.36,2.31A4.83,4.83,0,0,1,826.59,363Z"/><path class="cls-4" d="M572.51,433.14l-90.72-51.68c-1-.59-.87-1.61.38-2.27l4.36-2.31a4.83,4.83,0,0,1,4.15-.12l90.72,51.68c1,.59.87,1.61-.38,2.27L576.66,433A4.83,4.83,0,0,1,572.51,433.14Z"/><path class="cls-2" d="M643.38,473.51l-61.19-34.86c-1-.59-.87-1.61.38-2.27l4.36-2.31a4.83,4.83,0,0,1,4.15-.12l61.19,34.86c1,.59.87,1.61-.38,2.27l-4.36,2.31A4.83,4.83,0,0,1,643.38,473.51Z"/><path class="cls-2" d="M513.38,419l-37.57-21.4c-1-.59-.87-1.61.38-2.27l4.36-2.31a4.83,4.83,0,0,1,4.15-.12l37.57,21.4c1,.59.87,1.61-.38,2.27l-4.36,2.31A4.83,4.83,0,0,1,513.38,419Z"/><path class="cls-4" d="M566.54,449.27l-43.47-24.76c-1-.59-.87-1.61.38-2.27l4.36-2.31a4.83,4.83,0,0,1,4.15-.12l43.47,24.76c1,.59.87,1.61-.38,2.27l-4.36,2.31A4.83,4.83,0,0,1,566.54,449.27Z"/><path class="cls-4" d="M619.69,479.55,575,454.11c-1-.59-.87-1.61.38-2.27l4.36-2.31a4.83,4.83,0,0,1,4.15-.12l44.65,25.44c1,.59.87,1.61-.38,2.27l-4.36,2.31A4.83,4.83,0,0,1,619.69,479.55Z"/><path class="cls-3" d="M507.41,435.12l-37.57-21.4c-1-.59-.87-1.61.38-2.27l4.36-2.31a4.83,4.83,0,0,1,4.15-.12l37.57,21.4c1,.59.87,1.61-.38,2.27L511.57,435A4.83,4.83,0,0,1,507.41,435.12Z"/><path class="cls-4" d="M513.26,458l-49.38-28.13c-1-.59-.87-1.61.38-2.27l4.36-2.31a4.83,4.83,0,0,1,4.15-.12l49.38,28.13c1,.59.87,1.61-.38,2.27l-4.36,2.31A4.83,4.83,0,0,1,513.26,458Z"/><path class="cls-3" d="M596,485.59l-78.91-45c-1-.59-.87-1.61.38-2.27l4.36-2.31a4.83,4.83,0,0,1,4.15-.12l78.91,45c1,.59.87,1.61-.38,2.27l-4.36,2.31A4.83,4.83,0,0,1,596,485.59Z"/><path class="cls-2" d="M501.38,470.76l-90.72-51.68c-1-.59-.87-1.61.38-2.27l4.36-2.31a4.83,4.83,0,0,1,4.15-.12l90.72,51.68c1,.59.87,1.61-.38,2.27l-4.36,2.31A4.83,4.83,0,0,1,501.38,470.76Z"/><path class="cls-3" d="M572.25,511.13l-61.19-34.86c-1-.59-.87-1.61.38-2.27l4.36-2.31a4.83,4.83,0,0,1,4.15-.12l61.19,34.86c1,.59.87,1.61-.38,2.27L576.4,511A4.83,4.83,0,0,1,572.25,511.13Z"/><path class="cls-2" d="M442.26,456.61l-37.57-21.4c-1-.59-.87-1.61.38-2.27l4.36-2.31a4.83,4.83,0,0,1,4.15-.12l37.57,21.4c1,.59.87,1.61-.38,2.27l-4.36,2.31A4.83,4.83,0,0,1,442.26,456.61Z"/><path class="cls-3" d="M495.41,486.89l-43.47-24.76c-1-.59-.87-1.61.38-2.27l4.36-2.31a4.83,4.83,0,0,1,4.15-.12l43.47,24.76c1,.59.87,1.61-.38,2.27l-4.36,2.31A4.83,4.83,0,0,1,495.41,486.89Z"/><path class="cls-4" d="M548.56,517.17l-44.65-25.44c-1-.59-.87-1.61.38-2.27l4.36-2.31a4.83,4.83,0,0,1,4.15-.12l44.65,25.44c1,.59.87,1.61-.38,2.27L552.72,517A4.83,4.83,0,0,1,548.56,517.17Z"/><path class="cls-4" d="M436.28,472.74l-37.57-21.4c-1-.59-.87-1.61.38-2.27l4.36-2.31a4.83,4.83,0,0,1,4.15-.12L445.18,468c1,.59.87,1.61-.38,2.27l-4.36,2.31A4.83,4.83,0,0,1,436.28,472.74Z"/><path class="cls-3" d="M501.25,509.75,446,478.26c-1-.59-.87-1.61.38-2.27l4.36-2.31a4.83,4.83,0,0,1,4.15-.12l55.28,31.49c1,.59.87,1.61-.38,2.27l-4.36,2.31A4.83,4.83,0,0,1,501.25,509.75Z"/></g></svg>